# https://github.com/mikedh/trimesh
v -0.04006714 0.74218750 -0.03125000
v -0.03906250 0.73570180 -0.03125000
v -0.03906250 0.74218750 -0.03298086
v -0.04067045 0.74218750 -0.02343750
v -0.03906250 0.73528111 -0.02343750
v -0.03906250 0.74218750 -0.02025455
v -0.03906250 0.74223244 -0.03125000
v -0.03906250 0.74226499 -0.02343750
v -0.03125000 0.73765028 -0.03125000
v -0.03125000 0.74218750 -0.03720438
v -0.03125000 0.73587012 -0.02343750
v -0.03448009 0.74218750 -0.01562500
v -0.03125000 0.73526132 -0.01562500
v -0.03125000 0.74218750 -0.01317030
v -0.03125000 0.74220359 -0.03125000
v -0.03125000 0.74223959 -0.02343750
v -0.03125000 0.74227023 -0.01562500
v -0.02370858 0.73437500 0.00781250
v -0.02343750 0.73166156 0.00781250
v -0.02343750 0.73437500 0.00509906
v -0.02343750 0.73437500 0.00795364
v -0.02671278 0.74218750 -0.03125000
v -0.02343750 0.74218750 -0.02684081
v -0.02343750 0.73878419 -0.02343750
v -0.02343750 0.73571289 -0.01562500
v -0.02494150 0.74218750 -0.00781250
v -0.02343750 0.73591697 -0.00781250
v -0.02343750 0.74218750 -0.00648415
v -0.02343750 0.73446941 0.00781250
v -0.02343750 0.74219966 -0.02343750
v -0.02343750 0.74224806 -0.01562500
v -0.02343750 0.74222720 -0.00781250
v -0.02072406 0.73437500 0.00781250
v -0.02003419 0.74218750 -0.02343750
v -0.01562500 0.74218750 -0.02083403
v -0.01562500 0.73697841 -0.01562500
v -0.01562500 0.73525083 -0.00781250
v -0.01562500 0.74218750 -0.00351584
v -0.01562500 0.74221921 -0.01562500
v -0.01562500 0.74227631 -0.00781250
v -0.00781250 0.74203360 -0.01562500
v -0.00781250 0.74218750 -0.01577884
v -0.00781250 0.73541605 -0.00781250
v -0.01176560 0.74218750 0.00000000
v -0.00781250 0.73539770 0.00000000
v -0.00781250 0.74218750 0.00127769
v -0.00781250 0.74218798 -0.01562500
v -0.00781250 0.74227393 -0.00781250
v -0.00781250 0.74225426 0.00000000
v -0.00765866 0.74218750 -0.01562500
v 0.00000000 0.74218750 -0.01416755
v 0.00000000 0.73583245 -0.00781250
v 0.00000000 0.73510945 0.00000000
v 0.00000000 0.74218750 0.00169218
v 0.00000000 0.74225831 -0.00781250
v 0.00000000 0.74229753 0.00000000
v 0.00781250 0.73581851 -0.00781250
v 0.00781250 0.74218750 -0.01418144
v 0.00781250 0.73501408 0.00000000
v 0.00781250 0.74218750 0.00190711
v 0.00781250 0.74227369 -0.00781250
v 0.00781250 0.74233234 0.00000000
v 0.01562500 0.73550153 -0.00781250
v 0.01562500 0.74218750 -0.01537603
v 0.01562500 0.73605597 0.00000000
v 0.01562500 0.74218750 0.00078773
v 0.01562500 0.74230802 -0.00781250
v 0.01562500 0.74223661 0.00000000
v 0.01633716 0.74218750 -0.01562500
v 0.02343750 0.73702526 -0.01562500
v 0.02343750 0.74218750 -0.02078730
v 0.02343750 0.73527431 -0.00781250
v 0.01806056 0.74218750 0.00000000
v 0.02343750 0.74218750 -0.00399715
v 0.02343750 0.74225700 -0.01562500
v 0.02343750 0.74233818 -0.00781250
v 0.02452636 0.74218750 -0.01562500
v 0.02603960 0.74218750 -0.00781250
f 3 2 1
f 5 4 1
f 5 1 2
f 6 4 5
f 7 3 1
f 7 1 4
f 7 4 8
f 8 4 6
f 10 9 2
f 10 2 3
f 2 11 5
f 9 11 2
f 13 12 6
f 5 13 6
f 11 13 5
f 14 12 13
f 15 10 3
f 15 3 7
f 16 7 8
f 16 15 7
f 8 6 12
f 17 8 12
f 16 8 17
f 17 12 14
f 20 19 18
f 21 18 19
f 10 22 9
f 9 22 23
f 24 9 23
f 11 9 24
f 11 25 13
f 24 25 11
f 27 26 14
f 13 27 14
f 25 27 13
f 28 26 27
f 29 20 18
f 29 18 21
f 15 22 10
f 30 23 22
f 15 30 22
f 16 30 15
f 31 16 17
f 31 30 16
f 17 14 26
f 32 17 26
f 31 17 32
f 32 26 28
f 20 33 19
f 33 21 19
f 23 34 24
f 24 34 35
f 36 24 35
f 25 24 36
f 25 37 27
f 36 37 25
f 28 27 37
f 28 37 38
f 29 33 20
f 33 29 21
f 30 34 23
f 39 35 34
f 30 39 34
f 31 39 30
f 40 31 32
f 40 39 31
f 32 28 38
f 32 38 40
f 42 41 36
f 42 36 35
f 36 43 37
f 41 43 36
f 45 44 38
f 37 45 38
f 43 45 37
f 46 44 45
f 47 42 35
f 47 35 39
f 48 39 40
f 48 47 39
f 40 38 44
f 49 40 44
f 48 40 49
f 49 44 46
f 42 50 41
f 41 50 51
f 52 41 51
f 43 41 52
f 43 53 45
f 52 53 43
f 46 45 53
f 46 53 54
f 47 50 42
f 55 51 50
f 47 55 50
f 48 55 47
f 56 48 49
f 56 55 48
f 49 46 54
f 49 54 56
f 58 57 52
f 58 52 51
f 52 59 53
f 57 59 52
f 54 53 59
f 54 59 60
f 61 58 51
f 61 51 55
f 62 55 56
f 62 61 55
f 56 54 60
f 56 60 62
f 64 63 57
f 64 57 58
f 57 65 59
f 63 65 57
f 60 59 65
f 60 65 66
f 67 64 58
f 67 58 61
f 68 61 62
f 68 67 61
f 62 60 66
f 62 66 68
f 71 70 69
f 63 64 69
f 70 63 69
f 72 63 70
f 72 74 73
f 65 72 73
f 63 72 65
f 73 66 65
f 75 71 69
f 75 69 64
f 67 75 64
f 76 75 67
f 68 73 74
f 76 68 74
f 67 68 76
f 73 68 66
f 71 77 70
f 78 72 70
f 78 70 77
f 78 74 72
f 75 77 71
f 77 75 76
f 77 76 78
f 78 76 74