# https://github.com/mikedh/trimesh
v -0.03909719 0.01562500 -0.03125000
v -0.03906250 0.01354730 -0.03125000
v -0.03906250 0.01562500 -0.03344440
v -0.03920102 0.01562500 -0.02343750
v -0.03906250 0.01097345 -0.02343750
v -0.03907561 0.01562500 -0.01562500
v -0.03906250 0.01472187 -0.01562500
v -0.03906250 0.01562500 -0.01472187
v -0.03906250 0.01567483 -0.03125000
v -0.03906250 0.01580024 -0.02343750
v -0.03906250 0.01564133 -0.01562500
v -0.03698474 0.01562500 -0.03125000
v -0.03441101 0.01562500 -0.02343750
v -0.03815937 0.01562500 -0.01562500
v -0.03150207 0.03125000 0.02343750
v -0.03125000 0.02537858 0.02343750
v -0.03125000 0.03125000 0.01895392
v -0.03144884 0.03125000 0.03125000
v -0.03125000 0.02579689 0.03125000
v -0.03136289 0.03125000 0.03906250
v -0.03125000 0.02686048 0.03906250
v -0.03136462 0.03125000 0.04687500
v -0.03125000 0.02681160 0.04687500
v -0.03133726 0.03125000 0.05468750
v -0.03125000 0.02732623 0.05468750
v -0.03132820 0.03125000 0.06250000
v -0.03125000 0.02754462 0.06250000
v -0.03127283 0.03125000 0.07031250
v -0.03125000 0.02965224 0.07031250
v -0.03125000 0.03125000 0.07289517
v -0.03125000 0.03155184 0.02343750
v -0.03125000 0.03148711 0.03125000
v -0.03125000 0.03138363 0.03906250
v -0.03125000 0.03138602 0.04687500
v -0.03125000 0.03135300 0.05468750
v -0.03125000 0.03134155 0.06250000
v -0.03125000 0.03127635 0.07031250
v -0.02537853 0.03125000 0.02343750
v -0.02579689 0.03125000 0.03125000
v -0.02686048 0.03125000 0.03906250
v -0.02681154 0.03125000 0.04687500
v -0.02732617 0.03125000 0.05468750
v -0.02754462 0.03125000 0.06250000
v -0.02965224 0.03125000 0.07031250
v -0.02354068 0.03906250 0.00781250
v -0.02343750 0.03503084 0.00781250
v -0.02343750 0.03906250 0.00616503
v -0.02347690 0.03906250 0.01562500
v -0.02343750 0.03685975 0.01562500
v -0.02343750 0.03906250 0.02340412
v -0.02344733 0.03906250 0.10156250
v -0.02343750 0.03841829 0.10156250
v -0.02343750 0.03906250 0.10091829
v -0.02361888 0.03906250 0.10937500
v -0.02343750 0.03419018 0.10937500
v -0.02343750 0.03906250 0.11508262
v -0.02343750 0.03916276 0.00781250
v -0.02343750 0.03910089 0.01562500
v -0.02343750 0.03907120 0.10156250
v -0.02343750 0.03922427 0.10937500
v -0.01940590 0.03906250 0.00781250
v -0.02123481 0.03906250 0.01562500
v -0.02279329 0.03906250 0.10156250
v -0.01856518 0.03906250 0.10937500
v -0.01563817 0.04687500 0.18750000
v -0.01562500 0.04579639 0.18750000
v -0.01562500 0.04687500 0.18642139
v -0.01564479 0.04687500 0.19531250
v -0.01562500 0.04533172 0.19531250
v -0.01576358 0.04687500 0.20312500
v -0.01562500 0.04193115 0.20312500
v -0.01570362 0.04687500 0.21093750
v -0.01562500 0.04330909 0.21093750
v -0.01562500 0.04687500 0.21450341
v -0.01562500 0.04688597 0.18750000
v -0.01562500 0.04689133 0.19531250
v -0.01562500 0.04698491 0.20312500
v -0.01562500 0.04693067 0.21093750
v -0.00819582 -0.04687500 0.08593750
v -0.00781250 -0.04696578 0.08593750
v -0.00781250 -0.04687500 0.08185637
v -0.00796270 -0.04687500 0.09375000
v -0.00781250 -0.04692489 0.09375000
v -0.00848603 -0.04687500 0.10156250
v -0.00781250 -0.04713738 0.10156250
v -0.00810659 -0.04687500 0.10937500
v -0.00781250 -0.04698813 0.10937500
v -0.00781250 -0.04687500 0.11499119
v -0.00781250 -0.04279393 0.08593750
v -0.00781250 -0.04397511 0.09375000
v -0.00781250 -0.04091138 0.10156250
v -0.00781250 -0.04235876 0.10937500
v -0.00781566 0.04687500 -0.06250000
v -0.00781250 0.04664385 -0.06250000
v -0.00781250 0.04687500 -0.06252640
v -0.00781250 0.04687500 -0.06064606
v -0.00785989 0.04687500 -0.04687500
v -0.00781250 0.04453206 -0.04687500
v -0.00781250 0.04687500 -0.05323309
v -0.00791103 0.04687500 -0.03906250
v -0.00781250 0.04328287 -0.03906250
v -0.00799555 0.04687500 -0.03125000
v -0.00781250 0.04220498 -0.03125000
v -0.00806093 0.04687500 -0.02343750
v -0.00781250 0.04179192 -0.02343750
v -0.00808418 0.04687500 -0.01562500
v -0.00781250 0.04178882 -0.01562500
v -0.00788504 0.04687500 -0.00781250
v -0.00781250 0.04450464 -0.00781250
v -0.00797009 0.04687500 0.00000000
v -0.00781250 0.04300201 0.00000000
v -0.00810963 0.04687500 0.00781250
v -0.00781250 0.04176486 0.00781250
v -0.00824869 0.04687500 0.01562500
v -0.00781250 0.04123223 0.01562500
v -0.00823325 0.04687500 0.02343750
v -0.00781250 0.04142356 0.02343750
v -0.00808239 0.04687500 0.03125000
v -0.00781250 0.04252207 0.03125000
v -0.00793737 0.04687500 0.03906250
v -0.00781250 0.04421794 0.03906250
v -0.00795639 0.04687500 0.04687500
v -0.00781250 0.04397392 0.04687500
v -0.00798905 0.04687500 0.05468750
v -0.00781250 0.04354548 0.05468750
v -0.00798345 0.04687500 0.06250000
v -0.00781250 0.04349411 0.06250000
v -0.00793684 0.04687500 0.07031250
v -0.00781250 0.04407096 0.07031250
v -0.00789034 0.04687500 0.07812500
v -0.00781250 0.04490256 0.07812500
v -0.00781250 0.04687500 0.07997012
v -0.00791347 0.04687500 0.10156250
v -0.00781250 0.04362297 0.10156250
v -0.00781250 0.04687500 0.10091817
v -0.00781250 0.04687500 0.10481453
v -0.01454639 0.04687500 0.18750000
v -0.01408172 0.04687500 0.19531250
v -0.01068115 0.04687500 0.20312500
v -0.01205903 0.04687500 0.21093750
v -0.00781250 0.04687715 -0.06250000
v -0.00781250 0.04690671 -0.04687500
v -0.00781250 0.04693997 -0.03906250
v -0.00781250 0.04699147 -0.03125000
v -0.00781250 0.04702485 -0.02343750
v -0.00781250 0.04703164 -0.01562500
v -0.00781250 0.04691339 -0.00781250
v -0.00781250 0.04696143 0.00000000
v -0.00781250 0.04704487 0.00781250
v -0.00781250 0.04711246 0.01562500
v -0.00781250 0.04709244 0.02343750
v -0.00781250 0.04699767 0.03125000
v -0.00781250 0.04692698 0.03906250
v -0.00781250 0.04693496 0.04687500
v -0.00781250 0.04694879 0.05468750
v -0.00781250 0.04694808 0.06250000
v -0.00781250 0.04692662 0.07031250
v -0.00781250 0.04690528 0.07812500
v -0.00781250 0.04693723 0.10156250
v 0.00000000 -0.04698730 0.08593750
v 0.00000000 -0.04687500 0.08145142
v -0.00166219 -0.04687500 0.09375000
v 0.00000000 -0.04687500 0.09291947
v 0.00000000 -0.04687500 0.09412920
v 0.00000000 -0.04713535 0.10156250
v 0.00000000 -0.04701912 0.10937500
v 0.00000000 -0.04687500 0.11571145
v 0.00000000 -0.04239959 0.08593750
v 0.00000000 -0.04095548 0.10156250
v 0.00000000 -0.04193926 0.10937500
v -0.00728458 0.04687500 -0.06250000
v 0.00000000 0.04468250 -0.04687500
v 0.00000000 0.04687500 -0.04988587
v 0.00000000 0.04432321 -0.03906250
v 0.00000000 0.04326642 -0.03125000
v 0.00000000 0.04272103 -0.02343750
v 0.00000000 0.04252028 -0.01562500
v -0.00102395 0.04687500 -0.00781250
v 0.00000000 0.04687500 -0.00819987
v 0.00000000 0.04687500 -0.00614262
v 0.00000000 0.04535449 0.00000000
v 0.00000000 0.04280865 0.00781250
v 0.00000000 0.04189944 0.01562500
v 0.00000000 0.04242980 0.02343750
v 0.00000000 0.04395592 0.03125000
v 0.00000000 0.04467344 0.03906250
v 0.00000000 0.04397750 0.04687500
v 0.00000000 0.04362106 0.05468750
v 0.00000000 0.04359972 0.06250000
v 0.00000000 0.04430985 0.07031250
v 0.00000000 0.04444194 0.07812500
v -0.00027996 0.04687500 0.08593750
v 0.00000000 0.04657018 0.08593750
v 0.00000000 0.04687500 0.08597124
v 0.00000000 0.04227221 0.10156250
v 0.00000000 0.04687500 0.10052311
v 0.00000000 0.04687500 0.10616529
v 0.00000000 0.04690504 -0.04687500
v 0.00000000 0.04691362 -0.03906250
v 0.00000000 0.04694545 -0.03125000
v 0.00000000 0.04697073 -0.02343750
v 0.00000000 0.04698515 -0.01562500
v 0.00000000 0.04689741 0.00000000
v 0.00000000 0.04697645 0.00781250
v 0.00000000 0.04704118 0.01562500
v 0.00000000 0.04700434 0.02343750
v 0.00000000 0.04693544 0.03125000
v 0.00000000 0.04691553 0.03906250
v 0.00000000 0.04693556 0.04687500
v 0.00000000 0.04694736 0.05468750
v 0.00000000 0.04694593 0.06250000
v 0.00000000 0.04692173 0.07031250
v 0.00000000 0.04691696 0.07812500
v 0.00000000 0.04687870 0.08593750
v 0.00000000 0.04700232 0.10156250
v 0.00457513 -0.04687500 0.08593750
v 0.00781250 -0.04697293 0.10156250
v 0.00781250 -0.04687500 0.09840572
v 0.00781250 -0.04707158 0.10937500
v 0.00615764 -0.04687500 0.11718750
v 0.00781250 -0.04688394 0.11718750
v 0.00781250 -0.04687500 0.11798394
v 0.00781250 -0.04266906 0.10156250
v 0.00781250 -0.04138464 0.10937500
v 0.00781250 -0.04611719 0.11718750
v 0.00781250 0.04630804 -0.04687500
v 0.00781250 0.04687500 -0.04748124
v 0.00781250 0.04506075 -0.03906250
v 0.00781250 0.04362416 -0.03125000
v 0.00781250 0.04320395 -0.02343750
v 0.00781250 0.04307449 -0.01562500
v 0.00781250 0.04687500 -0.00977159
v 0.00781250 0.04581785 0.00000000
v 0.00781250 0.04687500 -0.00258166
v 0.00781250 0.04295015 0.00781250
v 0.00781250 0.04222262 0.01562500
v 0.00781250 0.04343677 0.02343750
v 0.00781250 0.04410267 0.03125000
v 0.00781250 0.04485023 0.03906250
v 0.00781250 0.04393768 0.04687500
v 0.00781250 0.04391241 0.05468750
v 0.00781250 0.04335916 0.06250000
v 0.00781250 0.04312336 0.07031250
v 0.00781250 0.04278505 0.07812500
v 0.00039172 0.04687500 0.08593750
v 0.00781250 0.04687500 0.08272076
v 0.00266540 0.04687500 0.10156250
v 0.00781250 0.04688132 -0.04687500
v 0.00781250 0.04689991 -0.03906250
v 0.00781250 0.04693556 -0.03125000
v 0.00781250 0.04695237 -0.02343750
v 0.00781250 0.04696095 -0.01562500
v 0.00781250 0.04688954 0.00000000
v 0.00781250 0.04697049 0.00781250
v 0.00781250 0.04701602 0.01562500
v 0.00781250 0.04695380 0.02343750
v 0.00781250 0.04693174 0.03125000
v 0.00781250 0.04691124 0.03906250
v 0.00781250 0.04693699 0.04687500
v 0.00781250 0.04693699 0.05468750
v 0.00781250 0.04695535 0.06250000
v 0.00781250 0.04696286 0.07031250
v 0.00781250 0.04697704 0.07812500
v 0.00819397 -0.04687500 0.10156250
v 0.00858533 -0.04687500 0.10937500
v 0.00785875 -0.04687500 0.11718750
v 0.00782299 0.04687500 -0.04687500
v 0.00785363 0.04687500 -0.03906250
v 0.00791299 0.04687500 -0.03125000
v 0.00794661 0.04687500 -0.02343750
v 0.00798464 0.04687500 -0.01562500
v 0.00784898 0.04687500 0.00000000
v 0.00806785 0.04687500 0.00781250
v 0.00827312 0.04687500 0.01562500
v 0.00814080 0.04687500 0.02343750
v 0.00802743 0.04687500 0.03125000
v 0.00794685 0.04687500 0.03906250
v 0.00802839 0.04687500 0.04687500
v 0.00801873 0.04687500 0.05468750
v 0.00806868 0.04687500 0.06250000
v 0.00809312 0.04687500 0.07031250
v 0.00813019 0.04687500 0.07812500
v 0.01181960 0.04687500 0.21875000
v 0.01562500 0.04306960 0.21875000
v 0.01562500 0.04687500 0.21108747
v 0.01562500 0.04687500 0.22255540
v 0.01562500 0.04694211 0.21875000
v 0.01875091 0.03906250 -0.02343750
v 0.02343750 0.03437591 -0.02343750
v 0.02343750 0.03906250 -0.02806270
v 0.01841033 0.03906250 -0.01562500
v 0.02343750 0.03403533 -0.01562500
v 0.01942968 0.03906250 -0.00781250
v 0.02343750 0.03505468 -0.00781250
v 0.02343750 0.03906250 -0.00044942
v 0.01940727 0.03906250 0.10156250
v 0.02343750 0.03503227 0.10156250
v 0.02343750 0.03906250 0.09733427
v 0.01920640 0.03906250 0.10937500
v 0.02343750 0.03483140 0.10937500
v 0.02343750 0.03906250 0.11360610
v 0.02343750 0.03921402 -0.02343750
v 0.02343750 0.03925323 -0.01562500
v 0.02343750 0.03917992 -0.00781250
v 0.02343750 0.03917658 0.10156250
v 0.02343750 0.03918552 0.10937500
v 0.01572001 0.04687500 0.21875000
v 0.03049695 0.03125000 -0.03906250
v 0.03125000 0.03049695 -0.03906250
v 0.03125000 0.03125000 -0.03997254
v 0.02682829 0.03125000 -0.03125000
v 0.03125000 0.02682829 -0.03125000
v 0.02548695 0.03125000 -0.02343750
v 0.03125000 0.02548695 -0.02343750
v 0.02488625 0.03125000 -0.01562500
v 0.03125000 0.02488625 -0.01562500
v 0.02550721 0.03125000 -0.00781250
v 0.03125000 0.02550721 -0.00781250
v 0.02575374 0.03125000 0.00000000
v 0.03125000 0.02575374 0.00000000
v 0.02569878 0.03125000 0.00781250
v 0.03125000 0.02569878 0.00781250
v 0.02562189 0.03125000 0.01562500
v 0.03125000 0.02562189 0.01562500
v 0.02565837 0.03125000 0.02343750
v 0.03125000 0.02565837 0.02343750
v 0.02556467 0.03125000 0.03125000
v 0.03125000 0.02556467 0.03125000
v 0.02557600 0.03125000 0.03906250
v 0.03125000 0.02557600 0.03906250
v 0.02561057 0.03125000 0.04687500
v 0.03125000 0.02561057 0.04687500
v 0.02569938 0.03125000 0.05468750
v 0.03125000 0.02569938 0.05468750
v 0.02600288 0.03125000 0.06250000
v 0.03125000 0.02600288 0.06250000
v 0.02688551 0.03125000 0.07031250
v 0.03125000 0.02688551 0.07031250
v 0.03125000 0.03125000 0.07682419
v 0.03125000 0.03126264 -0.03906250
v 0.03125000 0.03140867 -0.03125000
v 0.02362454 0.03906250 -0.02343750
v 0.03125000 0.03159356 -0.02343750
v 0.03125000 0.03178453 -0.01562500
v 0.02366638 0.03906250 -0.01562500
v 0.03125000 0.03160381 -0.00781250
v 0.02357566 0.03906250 -0.00781250
v 0.03125000 0.03155422 0.00000000
v 0.03125000 0.03157258 0.00781250
v 0.03125000 0.03159273 0.01562500
v 0.03125000 0.03158963 0.02343750
v 0.03125000 0.03161013 0.03125000
v 0.03125000 0.03160810 0.03906250
v 0.03125000 0.03159440 0.04687500
v 0.03125000 0.03157318 0.05468750
v 0.03125000 0.03151989 0.06250000
v 0.03125000 0.03141952 0.07031250
v 0.02357936 0.03906250 0.10156250
v 0.02359807 0.03906250 0.10937500
v 0.03707123 0.01562500 -0.04687500
v 0.03906250 0.01363373 -0.04687500
v 0.03906250 0.01562500 -0.04886627
v 0.03338647 0.01562500 -0.03906250
v 0.03906250 0.00994897 -0.03906250
v 0.03306913 0.01562500 -0.03125000
v 0.03906250 0.00963163 -0.03125000
v 0.03291905 0.01562500 -0.02343750
v 0.03906250 0.00948155 -0.02343750
v 0.03354764 0.01562500 -0.01562500
v 0.03906250 0.01011014 -0.01562500
v 0.03906250 0.01562500 -0.01011008
v 0.03906250 0.01572108 -0.04687500
v 0.03906250 0.01612437 -0.03906250
v 0.03906250 0.01611197 -0.03125000
v 0.03906250 0.01614666 -0.02343750
v 0.03906250 0.01599824 -0.01562500
v 0.03408241 0.02343750 0.10156250
v 0.03906250 0.01845741 0.10156250
v 0.03906250 0.02343750 0.09918225
v 0.03775215 0.02343750 0.10937500
v 0.03906250 0.02212715 0.10937500
v 0.03906250 0.02343750 0.11068535
v 0.03126085 0.03125000 -0.03906250
v 0.03138006 0.03125000 -0.03125000
v 0.03152835 0.03125000 -0.02343750
v 0.03168428 0.03125000 -0.01562500
v 0.03153694 0.03125000 -0.00781250
v 0.03149593 0.03125000 0.00000000
v 0.03150582 0.03125000 0.00781250
v 0.03151608 0.03125000 0.01562500
v 0.03150940 0.03125000 0.02343750
v 0.03153038 0.03125000 0.03125000
v 0.03153586 0.03125000 0.03906250
v 0.03153324 0.03125000 0.04687500
v 0.03151691 0.03125000 0.05468750
v 0.03147471 0.03125000 0.06250000
v 0.03138995 0.03125000 0.07031250
v 0.03906250 0.02365422 0.10156250
v 0.03906250 0.02346373 0.10937500
v 0.03909934 0.01562500 -0.04687500
v 0.03933144 0.01562500 -0.03906250
v 0.03939879 0.01562500 -0.03125000
v 0.03944337 0.01562500 -0.02343750
v 0.03932059 0.01562500 -0.01562500
v 0.03924072 0.02343750 0.10156250
v 0.03908360 0.02343750 0.10937500
f 3 2 1
f 5 4 1
f 5 1 2
f 7 6 4
f 7 4 5
f 8 6 7
f 9 3 1
f 9 1 4
f 9 4 10
f 10 4 6
f 10 6 11
f 11 6 8
f 3 12 2
f 13 5 2
f 13 2 12
f 14 7 5
f 14 5 13
f 14 8 7
f 9 12 3
f 12 9 10
f 12 10 13
f 13 10 11
f 13 11 14
f 14 11 8
f 17 16 15
f 19 18 15
f 19 15 16
f 21 20 18
f 21 18 19
f 23 22 20
f 23 20 21
f 25 24 22
f 25 22 23
f 27 26 24
f 27 24 25
f 29 28 26
f 29 26 27
f 30 28 29
f 31 17 15
f 31 15 18
f 31 18 32
f 32 18 20
f 32 20 33
f 33 20 22
f 33 22 34
f 34 22 24
f 34 24 35
f 35 24 26
f 35 26 36
f 36 26 28
f 36 28 37
f 37 28 30
f 17 38 16
f 39 19 16
f 39 16 38
f 40 21 19
f 40 19 39
f 41 23 21
f 41 21 40
f 42 25 23
f 42 23 41
f 43 27 25
f 43 25 42
f 44 29 27
f 44 27 43
f 44 30 29
f 47 46 45
f 49 48 45
f 49 45 46
f 17 31 38
f 48 49 50
f 38 31 32
f 38 32 39
f 39 32 33
f 39 33 40
f 40 33 34
f 40 34 41
f 41 34 35
f 41 35 42
f 42 35 36
f 42 36 43
f 43 36 37
f 43 37 44
f 44 37 30
f 53 52 51
f 55 54 51
f 55 51 52
f 56 54 55
f 57 47 45
f 57 45 48
f 57 48 58
f 58 48 50
f 59 53 51
f 59 51 54
f 59 54 60
f 60 54 56
f 47 61 46
f 62 49 46
f 62 46 61
f 62 50 49
f 53 63 52
f 64 55 52
f 64 52 63
f 64 56 55
f 57 61 47
f 61 57 58
f 61 58 62
f 62 58 50
f 59 63 53
f 63 59 60
f 63 60 64
f 64 60 56
f 67 66 65
f 69 68 65
f 69 65 66
f 71 70 68
f 71 68 69
f 73 72 70
f 73 70 71
f 74 72 73
f 75 67 65
f 75 65 68
f 75 68 76
f 76 68 70
f 76 70 77
f 77 70 72
f 77 72 78
f 78 72 74
f 81 80 79
f 83 82 79
f 83 79 80
f 85 84 82
f 85 82 83
f 87 86 84
f 87 84 85
f 88 86 87
f 89 81 79
f 89 79 82
f 89 82 90
f 90 82 84
f 90 84 91
f 91 84 86
f 91 86 92
f 92 86 88
f 95 94 93
f 96 93 94
f 99 98 97
f 101 100 97
f 101 97 98
f 103 102 100
f 103 100 101
f 105 104 102
f 105 102 103
f 107 106 104
f 107 104 105
f 109 108 106
f 109 106 107
f 111 110 108
f 111 108 109
f 113 112 110
f 113 110 111
f 115 114 112
f 115 112 113
f 117 116 114
f 117 114 115
f 119 118 116
f 119 116 117
f 121 120 118
f 121 118 119
f 123 122 120
f 123 120 121
f 125 124 122
f 125 122 123
f 127 126 124
f 127 124 125
f 129 128 126
f 129 126 127
f 131 130 128
f 131 128 129
f 132 130 131
f 135 134 133
f 136 133 134
f 67 137 66
f 138 69 66
f 138 66 137
f 139 71 69
f 139 69 138
f 140 73 71
f 140 71 139
f 140 74 73
f 141 95 93
f 141 93 96
f 142 99 97
f 142 97 100
f 142 100 143
f 143 100 102
f 143 102 144
f 144 102 104
f 144 104 145
f 145 104 106
f 145 106 146
f 146 106 108
f 146 108 147
f 147 108 110
f 147 110 148
f 148 110 112
f 148 112 149
f 149 112 114
f 149 114 150
f 150 114 116
f 150 116 151
f 151 116 118
f 151 118 152
f 152 118 120
f 152 120 153
f 153 120 122
f 153 122 154
f 154 122 124
f 154 124 155
f 155 124 126
f 155 126 156
f 156 126 128
f 156 128 157
f 157 128 130
f 157 130 158
f 158 130 132
f 159 135 133
f 159 133 136
f 75 137 67
f 137 75 76
f 137 76 138
f 138 76 77
f 138 77 139
f 139 77 78
f 139 78 140
f 140 78 74
f 161 160 80
f 161 80 81
f 160 163 162
f 83 160 162
f 80 160 83
f 83 162 164
f 165 83 164
f 85 83 165
f 85 166 87
f 165 166 85
f 88 87 166
f 88 166 167
f 168 161 81
f 168 81 89
f 90 162 163
f 168 90 163
f 89 90 168
f 169 164 162
f 90 169 162
f 91 169 90
f 170 91 92
f 170 169 91
f 92 88 167
f 92 167 170
f 95 171 94
f 171 96 94
f 173 172 98
f 173 98 99
f 98 174 101
f 172 174 98
f 101 175 103
f 174 175 101
f 103 176 105
f 175 176 103
f 105 177 107
f 176 177 105
f 177 179 178
f 109 177 178
f 107 177 109
f 109 178 180
f 181 109 180
f 111 109 181
f 111 182 113
f 181 182 111
f 113 183 115
f 182 183 113
f 115 184 117
f 183 184 115
f 117 185 119
f 184 185 117
f 119 186 121
f 185 186 119
f 121 187 123
f 186 187 121
f 123 188 125
f 187 188 123
f 125 189 127
f 188 189 125
f 127 190 129
f 189 190 127
f 129 191 131
f 190 191 129
f 193 192 132
f 131 193 132
f 191 193 131
f 194 192 193
f 196 195 134
f 196 134 135
f 136 134 195
f 136 195 197
f 141 171 95
f 171 141 96
f 198 173 99
f 198 99 142
f 199 142 143
f 199 198 142
f 200 143 144
f 200 199 143
f 201 144 145
f 201 200 144
f 202 145 146
f 202 201 145
f 147 178 179
f 202 147 179
f 146 147 202
f 203 180 178
f 147 203 178
f 148 203 147
f 204 148 149
f 204 203 148
f 205 149 150
f 205 204 149
f 206 150 151
f 206 205 150
f 207 151 152
f 207 206 151
f 208 152 153
f 208 207 152
f 209 153 154
f 209 208 153
f 210 154 155
f 210 209 154
f 211 155 156
f 211 210 155
f 212 156 157
f 212 211 156
f 213 157 158
f 213 212 157
f 158 132 192
f 214 158 192
f 213 158 214
f 214 192 194
f 215 196 135
f 215 135 159
f 159 136 197
f 159 197 215
f 161 216 160
f 216 163 160
f 218 217 165
f 218 165 164
f 165 219 166
f 217 219 165
f 221 220 167
f 166 221 167
f 219 221 166
f 222 220 221
f 168 216 161
f 216 168 163
f 223 218 164
f 223 164 169
f 224 169 170
f 224 223 169
f 170 167 220
f 225 170 220
f 224 170 225
f 225 220 222
f 227 226 172
f 227 172 173
f 172 228 174
f 226 228 172
f 174 229 175
f 228 229 174
f 175 230 176
f 229 230 175
f 176 231 177
f 230 231 176
f 179 177 231
f 179 231 232
f 234 233 181
f 234 181 180
f 181 235 182
f 233 235 181
f 182 236 183
f 235 236 182
f 183 237 184
f 236 237 183
f 184 238 185
f 237 238 184
f 185 239 186
f 238 239 185
f 186 240 187
f 239 240 186
f 187 241 188
f 240 241 187
f 188 242 189
f 241 242 188
f 189 243 190
f 242 243 189
f 190 244 191
f 243 244 190
f 244 246 245
f 193 244 245
f 191 244 193
f 245 194 193
f 196 247 195
f 247 197 195
f 248 227 173
f 248 173 198
f 249 198 199
f 249 248 198
f 250 199 200
f 250 249 199
f 251 200 201
f 251 250 200
f 252 201 202
f 252 251 201
f 202 179 232
f 202 232 252
f 253 234 180
f 253 180 203
f 254 203 204
f 254 253 203
f 255 204 205
f 255 254 204
f 256 205 206
f 256 255 205
f 257 206 207
f 257 256 206
f 258 207 208
f 258 257 207
f 259 208 209
f 259 258 208
f 260 209 210
f 260 259 209
f 261 210 211
f 261 260 210
f 262 211 212
f 262 261 211
f 263 212 213
f 263 262 212
f 214 245 246
f 263 214 246
f 213 214 263
f 245 214 194
f 215 247 196
f 247 215 197
f 218 264 217
f 265 219 217
f 265 217 264
f 266 221 219
f 266 219 265
f 266 222 221
f 223 264 218
f 264 223 224
f 264 224 265
f 265 224 225
f 265 225 266
f 266 225 222
f 227 267 226
f 268 228 226
f 268 226 267
f 269 229 228
f 269 228 268
f 270 230 229
f 270 229 269
f 271 231 230
f 271 230 270
f 271 232 231
f 234 272 233
f 273 235 233
f 273 233 272
f 274 236 235
f 274 235 273
f 275 237 236
f 275 236 274
f 276 238 237
f 276 237 275
f 277 239 238
f 277 238 276
f 278 240 239
f 278 239 277
f 279 241 240
f 279 240 278
f 280 242 241
f 280 241 279
f 281 243 242
f 281 242 280
f 282 244 243
f 282 243 281
f 282 246 244
f 285 284 283
f 286 283 284
f 248 267 227
f 267 248 249
f 267 249 268
f 268 249 250
f 268 250 269
f 269 250 251
f 269 251 270
f 270 251 252
f 270 252 271
f 271 252 232
f 253 272 234
f 272 253 254
f 272 254 273
f 273 254 255
f 273 255 274
f 274 255 256
f 274 256 275
f 275 256 257
f 275 257 276
f 276 257 258
f 276 258 277
f 277 258 259
f 277 259 278
f 278 259 260
f 278 260 279
f 279 260 261
f 279 261 280
f 280 261 262
f 280 262 281
f 281 262 263
f 281 263 282
f 282 263 246
f 287 285 283
f 287 283 286
f 290 289 288
f 292 291 288
f 292 288 289
f 294 293 291
f 294 291 292
f 295 293 294
f 298 297 296
f 300 299 296
f 300 296 297
f 301 299 300
f 302 290 288
f 302 288 291
f 302 291 303
f 303 291 293
f 303 293 304
f 304 293 295
f 305 298 296
f 305 296 299
f 305 299 306
f 306 299 301
f 285 307 284
f 307 286 284
f 287 307 285
f 307 287 286
f 310 309 308
f 312 311 308
f 312 308 309
f 314 313 311
f 314 311 312
f 316 315 313
f 316 313 314
f 318 317 315
f 318 315 316
f 320 319 317
f 320 317 318
f 322 321 319
f 322 319 320
f 324 323 321
f 324 321 322
f 326 325 323
f 326 323 324
f 328 327 325
f 328 325 326
f 330 329 327
f 330 327 328
f 332 331 329
f 332 329 330
f 334 333 331
f 334 331 332
f 336 335 333
f 336 333 334
f 338 337 335
f 338 335 336
f 339 337 338
f 340 310 308
f 340 308 311
f 340 311 341
f 342 289 290
f 311 343 341
f 343 311 313
f 343 315 344
f 315 343 313
f 345 292 342
f 289 342 292
f 344 317 346
f 317 344 315
f 347 294 345
f 292 345 294
f 295 294 347
f 348 346 319
f 317 319 346
f 348 319 321
f 348 321 349
f 349 321 323
f 349 323 350
f 350 323 325
f 350 325 351
f 351 325 327
f 351 327 352
f 352 327 329
f 352 329 353
f 353 329 331
f 353 331 354
f 354 331 333
f 354 333 355
f 355 333 335
f 355 335 356
f 356 335 337
f 356 337 357
f 357 337 339
f 298 358 297
f 359 300 297
f 359 297 358
f 359 301 300
f 302 342 290
f 342 302 303
f 342 303 345
f 345 303 304
f 345 304 347
f 347 304 295
f 305 358 298
f 358 305 306
f 358 306 359
f 359 306 301
f 362 361 360
f 364 363 360
f 364 360 361
f 366 365 363
f 366 363 364
f 368 367 365
f 368 365 366
f 370 369 367
f 370 367 368
f 371 369 370
f 372 362 360
f 372 360 363
f 372 363 373
f 373 363 365
f 373 365 374
f 374 365 367
f 374 367 375
f 375 367 369
f 375 369 376
f 376 369 371
f 379 378 377
f 381 380 377
f 381 377 378
f 382 380 381
f 310 383 309
f 384 312 309
f 384 309 383
f 385 314 312
f 385 312 384
f 386 316 314
f 386 314 385
f 387 318 316
f 387 316 386
f 388 320 318
f 388 318 387
f 389 322 320
f 389 320 388
f 390 324 322
f 390 322 389
f 391 326 324
f 391 324 390
f 392 328 326
f 392 326 391
f 393 330 328
f 393 328 392
f 394 332 330
f 394 330 393
f 395 334 332
f 395 332 394
f 396 336 334
f 396 334 395
f 397 338 336
f 397 336 396
f 397 339 338
f 398 379 377
f 398 377 380
f 398 380 399
f 399 380 382
f 340 383 310
f 383 340 341
f 383 341 384
f 384 341 343
f 384 343 385
f 385 343 344
f 385 344 386
f 386 344 346
f 386 346 387
f 387 346 348
f 387 348 388
f 388 348 349
f 388 349 389
f 389 349 350
f 389 350 390
f 390 350 351
f 390 351 391
f 391 351 352
f 391 352 392
f 392 352 353
f 392 353 393
f 393 353 354
f 393 354 394
f 394 354 355
f 394 355 395
f 395 355 356
f 395 356 396
f 396 356 357
f 396 357 397
f 397 357 339
f 362 400 361
f 401 364 361
f 401 361 400
f 402 366 364
f 402 364 401
f 403 368 366
f 403 366 402
f 404 370 368
f 404 368 403
f 404 371 370
f 372 400 362
f 400 372 373
f 400 373 401
f 401 373 374
f 401 374 402
f 402 374 375
f 402 375 403
f 403 375 376
f 403 376 404
f 404 376 371
f 379 405 378
f 406 381 378
f 406 378 405
f 406 382 381
f 398 405 379
f 405 398 399
f 405 399 406
f 406 399 382