# https://github.com/mikedh/trimesh
v -0.37549943 0.28906250 0.11718750
v -0.37500000 0.28879559 0.11718750
v -0.37500000 0.28906250 0.11445415
v -0.37551266 0.28906250 0.12500000
v -0.37500000 0.28883421 0.12500000
v -0.37526220 0.28906250 0.13281250
v -0.37500000 0.28891551 0.13281250
v -0.37507558 0.28906250 0.14062500
v -0.37500000 0.28899276 0.14062500
v -0.37500000 0.28906250 0.14504600
v -0.37513149 0.29687500 -0.01562500
v -0.37500000 0.29672337 -0.01562500
v -0.37500000 0.29687500 -0.02216232
v -0.37522864 0.29687500 -0.00781250
v -0.37500000 0.29662740 -0.00781250
v -0.37532556 0.29687500 0.00000000
v -0.37500000 0.29648077 0.00000000
v -0.37510264 0.29687500 0.00781250
v -0.37500000 0.29673088 0.00781250
v -0.37500000 0.29687500 0.00940931
v -0.37504315 0.29687500 0.05468750
v -0.37500000 0.29678154 0.05468750
v -0.37500000 0.29687500 0.05419946
v -0.37520355 0.29687500 0.06250000
v -0.37500000 0.29643452 0.06250000
v -0.37530154 0.29687500 0.07031250
v -0.37500000 0.29616582 0.07031250
v -0.37529594 0.29687500 0.07812500
v -0.37500000 0.29611099 0.07812500
v -0.37527335 0.29687500 0.08593750
v -0.37500000 0.29603052 0.08593750
v -0.37527055 0.29687500 0.09375000
v -0.37500000 0.29581511 0.09375000
v -0.37524796 0.29687500 0.10156250
v -0.37500000 0.29579997 0.10156250
v -0.37513322 0.29687500 0.10937500
v -0.37500000 0.29561305 0.10937500
v -0.37500584 0.29687500 0.11718750
v -0.37500000 0.29687500 0.11790419
v -0.37500000 0.29540396 0.12500000
v -0.37500000 0.29466796 0.13281250
v -0.37500000 0.29319263 0.14062500
v -0.37500000 0.30181205 -0.01562500
v -0.37500000 0.30292690 -0.00781250
v -0.37500000 0.30355406 0.00000000
v -0.37500000 0.30218494 0.00781250
v -0.37500000 0.29725885 0.05468750
v -0.37500000 0.29821873 0.06250000
v -0.37500000 0.29872501 0.07031250
v -0.37500000 0.29851949 0.07812500
v -0.37500000 0.29878700 0.08593750
v -0.37500000 0.30363703 0.09375000
v -0.37500000 0.30309165 0.10156250
v -0.37500000 0.30202651 0.10937500
v -0.37500000 0.29759169 0.11718750
v -0.36726493 0.28906250 0.01562500
v -0.36718750 0.28899944 0.01562500
v -0.36718750 0.28906250 0.00911212
v -0.36718750 0.28906250 0.01669085
v -0.37219572 0.28906250 0.11718750
v -0.36718750 0.28906250 0.12493372
v -0.36718750 0.28905642 0.12500000
v -0.36765307 0.28906250 0.13281250
v -0.36718750 0.28906250 0.12765002
v -0.37086987 0.28906250 0.14062500
v -0.37006289 0.29687500 -0.01562500
v -0.36894810 0.29687500 -0.00781250
v -0.36832100 0.29687500 0.00000000
v -0.36969006 0.29687500 0.00781250
v -0.36718750 0.29326451 0.01562500
v -0.37073326 0.29687500 0.05468750
v -0.36843967 0.29687500 0.06250000
v -0.36772972 0.29687500 0.07031250
v -0.36774915 0.29687500 0.07812500
v -0.36792815 0.29687500 0.08593750
v -0.36847705 0.29687500 0.09375000
v -0.36878330 0.29687500 0.10156250
v -0.36984849 0.29687500 0.10937500
v -0.37428331 0.29687500 0.11718750
v -0.36718750 0.28965878 0.12500000
v -0.35938686 0.28125000 0.00000000
v -0.35937500 0.28124225 0.00000000
v -0.35937500 0.28125000 -0.00107777
v -0.35937500 0.28125000 0.00005603
v -0.35937500 0.28232777 0.00000000
v -0.36298555 0.28906250 0.01562500
v -0.35962707 0.28906250 0.07031250
v -0.35937500 0.28898835 0.07031250
v -0.35937500 0.28906250 0.06478000
v -0.35998964 0.28906250 0.07812500
v -0.35937500 0.28883529 0.07812500
v -0.36016035 0.28906250 0.08593750
v -0.35937500 0.28873897 0.08593750
v -0.36024922 0.28906250 0.09375000
v -0.35937500 0.28872561 0.09375000
v -0.36028606 0.28906250 0.10156250
v -0.35937500 0.28871191 0.10156250
v -0.36043853 0.28906250 0.10937500
v -0.35937500 0.28878844 0.10937500
v -0.36083382 0.28906250 0.11718750
v -0.35937500 0.28882837 0.11718750
v -0.35937500 0.28789389 0.12500000
v -0.36710769 0.28906250 0.13281250
v -0.35937500 0.28734529 0.13281250
v -0.36648464 0.28906250 0.14062500
v -0.35937500 0.28783274 0.14062500
v -0.35937500 0.28906250 0.14773464
v -0.35937500 0.29296291 0.07031250
v -0.35937500 0.29495740 0.07812500
v -0.35937500 0.29539776 0.08593750
v -0.35937500 0.29542172 0.09375000
v -0.35937500 0.29541421 0.10156250
v -0.35937500 0.29490137 0.10937500
v -0.35937500 0.29444695 0.11718750
v -0.35937500 0.29622757 0.12500000
v -0.35937500 0.29640436 0.13281250
v -0.35937500 0.29617214 0.14062500
v -0.35829723 0.28125000 0.00000000
v -0.35156250 0.28124940 0.00781250
v -0.35156250 0.28125000 0.00773430
v -0.35156608 0.28125000 0.00781250
v -0.35192788 0.28125000 0.01562500
v -0.35156250 0.28112304 0.01562500
v -0.35156250 0.28125000 0.01827967
v -0.35156250 0.28132820 0.00781250
v -0.35156250 0.28681552 0.01562500
v -0.35547453 0.28906250 0.07031250
v -0.35348016 0.28906250 0.07812500
v -0.35303974 0.28906250 0.08593750
v -0.35301578 0.28906250 0.09375000
v -0.35302323 0.28906250 0.10156250
v -0.35353613 0.28906250 0.10937500
v -0.35399061 0.28906250 0.11718750
v -0.35220999 0.28906250 0.12500000
v -0.35203314 0.28906250 0.13281250
v -0.35226536 0.28906250 0.14062500
v -0.35148436 0.28125000 0.00781250
v -0.34375000 0.28125000 0.01016402
v -0.34375000 0.28112352 0.01562500
v -0.34803003 0.28125000 0.02343750
v -0.34375000 0.28095078 0.02343750
v -0.34375000 0.28125000 0.02918303
v -0.34375000 0.28671098 0.01562500
v -0.34375000 0.28791881 0.02343750
v -0.33593750 0.28114331 0.01562500
v -0.33593750 0.28125000 0.01045752
v -0.33593750 0.28100741 0.02343750
v -0.34196043 0.28125000 0.03125000
v -0.33593750 0.28089619 0.03125000
v -0.34047788 0.28125000 0.03906250
v -0.33593750 0.28100455 0.03906250
v -0.33593750 0.28125000 0.04448140
v -0.33593750 0.28641748 0.01562500
v -0.33593750 0.28769231 0.02343750
v -0.33593750 0.28809321 0.03125000
v -0.33593750 0.28771842 0.03906250
v -0.32967216 0.28125000 -0.03125000
v -0.32812500 0.28123629 -0.03125000
v -0.32812500 0.28125000 -0.03384334
v -0.33152276 0.28125000 -0.02343750
v -0.32812500 0.28120756 -0.02343750
v -0.33284998 0.28125000 -0.01562500
v -0.32812500 0.28116703 -0.01562500
v -0.33284599 0.28125000 -0.00781250
v -0.32812500 0.28116727 -0.00781250
v -0.33335698 0.28125000 0.00000000
v -0.32812500 0.28114140 0.00000000
v -0.33394492 0.28125000 0.00781250
v -0.32812500 0.28109682 0.00781250
v -0.32812500 0.28104150 0.01562500
v -0.32812500 0.28098714 0.02343750
v -0.32812500 0.28089452 0.03125000
v -0.32812500 0.28102493 0.03906250
v -0.32812500 0.28125000 0.04251397
v -0.32812500 0.28279710 -0.03125000
v -0.32812500 0.28464782 -0.02343750
v -0.32812500 0.28597498 -0.01562500
v -0.32812500 0.28597093 -0.00781250
v -0.32812500 0.28648198 0.00000000
v -0.32812500 0.28706992 0.00781250
v -0.32812500 0.28754532 0.01562500
v -0.32812500 0.28782129 0.02343750
v -0.32812500 0.28812623 0.03125000
v -0.32812500 0.28764796 0.03906250
v -0.33062619 0.28906250 0.07812500
v -0.32812500 0.28901505 0.07812500
v -0.32812500 0.28906250 0.07562387
v -0.32931560 0.28906250 0.08593750
v -0.32812500 0.28904212 0.08593750
v -0.32812500 0.28906250 0.08712816
v -0.32812500 0.29156363 0.07812500
v -0.32812500 0.29025316 0.08593750
v -0.32080162 -0.17187500 0.28906250
v -0.32031250 -0.17474902 0.28906250
v -0.32031250 -0.17187500 0.28596485
v -0.32088530 -0.17187500 0.29687500
v -0.32031250 -0.17528969 0.29687500
v -0.32031250 -0.17187500 0.29971194
v -0.32073921 -0.16406250 0.28125000
v -0.32031250 -0.16693228 0.28125000
v -0.32031250 -0.16406250 0.27923930
v -0.32204664 -0.16406250 0.28906250
v -0.32174623 -0.16406250 0.29687500
v -0.32031250 -0.16406250 0.30082572
v -0.32174271 -0.15625000 0.28125000
v -0.32031250 -0.15625000 0.27555406
v -0.32269090 -0.15625000 0.28906250
v -0.32184559 -0.15625000 0.29687500
v -0.32031250 -0.15625000 0.30005610
v -0.32167941 -0.14843750 0.28125000
v -0.32031250 -0.14843750 0.27595615
v -0.32235450 -0.14843750 0.28906250
v -0.32132375 -0.14843750 0.29687500
v -0.32031250 -0.14843750 0.29887044
v -0.32140666 -0.14062500 0.28125000
v -0.32031250 -0.14062500 0.27624631
v -0.32186884 -0.14062500 0.28906250
v -0.32034010 -0.14062500 0.29687500
v -0.32031250 -0.14062500 0.29693222
v -0.32088524 -0.13281250 0.28125000
v -0.32031250 -0.13281250 0.27684796
v -0.32094008 -0.13281250 0.28906250
v -0.32031250 -0.13281250 0.29180944
v -0.32031250 -0.14045501 0.29687500
v -0.32048357 -0.12500000 0.27343750
v -0.32031250 -0.12727475 0.27343750
v -0.32031250 -0.12500000 0.27301323
v -0.32107610 -0.12500000 0.28125000
v -0.32074410 -0.12500000 0.28906250
v -0.32031250 -0.12500000 0.29058456
v -0.32038110 -0.11718750 0.27343750
v -0.32031250 -0.11718750 0.27326393
v -0.32127821 -0.11718750 0.28125000
v -0.32031250 -0.11718750 0.28795230
v -0.32031250 -0.11949646 0.28906250
v -0.32038385 -0.10937500 0.27343750
v -0.32031250 -0.10937500 0.27325988
v -0.32148242 -0.10937500 0.28125000
v -0.32031250 -0.10937500 0.28720593
v -0.32031250 -0.10555929 0.27343750
v -0.32031250 -0.10156250 0.27391386
v -0.32132208 -0.10156250 0.28125000
v -0.32031250 -0.10156250 0.28614521
v -0.32096648 -0.09375000 0.28125000
v -0.32031250 -0.09375000 0.27720904
v -0.32031250 -0.09375000 0.28426921
v -0.32031250 -0.08638692 0.28125000
v -0.32485777 0.28125000 -0.07031250
v -0.32031250 0.28117824 -0.07031250
v -0.32031250 0.28125000 -0.07675070
v -0.32583600 0.28125000 -0.06250000
v -0.32031250 0.28112495 -0.06250000
v -0.32650751 0.28125000 -0.05468750
v -0.32031250 0.28105175 -0.05468750
v -0.32673854 0.28125000 -0.04687500
v -0.32031250 0.28101099 -0.04687500
v -0.32752132 0.28125000 -0.03906250
v -0.32031250 0.28094506 -0.03906250
v -0.32031250 0.28089797 -0.03125000
v -0.32031250 0.28102469 -0.02343750
v -0.32031250 0.28121793 -0.01562500
v -0.32503855 0.28125000 -0.00781250
v -0.32031250 0.28125000 -0.01401430
v -0.32623601 0.28125000 0.00000000
v -0.32636601 0.28125000 0.00781250
v -0.32666939 0.28125000 0.01562500
v -0.32624012 0.28125000 0.02343750
v -0.32433808 0.28125000 0.03125000
v -0.32570511 0.28125000 0.03906250
v -0.32715303 0.28125000 0.13281250
v -0.32031250 0.28095877 0.13281250
v -0.32031250 0.28125000 0.13060904
v -0.32031250 0.28125000 0.13907111
v -0.32031250 0.28579533 -0.07031250
v -0.32031250 0.28677356 -0.06250000
v -0.32031250 0.28744495 -0.05468750
v -0.32031250 0.28767610 -0.04687500
v -0.32031250 0.28793585 -0.03906250
v -0.32031250 0.28807330 -0.03125000
v -0.32031250 0.28760207 -0.02343750
v -0.32031250 0.28420174 -0.01562500
v -0.32031250 0.28902543 0.07812500
v -0.32031250 0.28906250 0.07636178
v -0.32128143 0.28906250 0.08593750
v -0.32031250 0.28906250 0.08530998
v -0.32031250 0.28750861 0.13281250
v -0.32031250 0.29082572 0.07812500
v -0.31289005 -0.21875000 0.28906250
v -0.31250000 -0.22333038 0.28906250
v -0.31250000 -0.21875000 0.28554440
v -0.31279588 -0.21875000 0.29687500
v -0.31250000 -0.22114140 0.29687500
v -0.31250000 -0.21875000 0.29882443
v -0.31250000 -0.21208024 0.28906250
v -0.31250000 -0.21235019 0.29687500
v -0.31250000 -0.21093750 0.29894137
v -0.31268072 -0.21093750 0.30468750
v -0.31250000 -0.21226174 0.30468750
v -0.31250000 -0.21093750 0.30548275
v -0.31250000 -0.20519131 0.30468750
v -0.31373423 -0.19531250 0.31250000
v -0.31250000 -0.20181632 0.31250000
v -0.31250000 -0.19531250 0.30511689
v -0.31250000 -0.19531250 0.31698787
v -0.31411344 -0.18750000 0.31250000
v -0.31250000 -0.18750000 0.30511224
v -0.31250000 -0.18750000 0.31719410
v -0.31480139 -0.17968750 0.31250000
v -0.31250000 -0.17968750 0.30498838
v -0.31250000 -0.17968750 0.31620419
v -0.31251609 -0.17187500 0.25781250
v -0.31250000 -0.17205828 0.25781250
v -0.31250000 -0.17187500 0.25777626
v -0.31250000 -0.17187500 0.25917673
v -0.31342465 -0.17187500 0.28906250
v -0.31332189 -0.17187500 0.29687500
v -0.31250000 -0.17187500 0.29762256
v -0.31250000 -0.17893994 0.30468750
v -0.31553000 -0.17187500 0.30468750
v -0.31412160 -0.17187500 0.31250000
v -0.31250000 -0.17187500 0.31481278
v -0.31270528 -0.16406250 0.25781250
v -0.31250000 -0.16406250 0.25733495
v -0.31250000 -0.16406250 0.26333892
v -0.31353027 -0.16406250 0.28125000
v -0.31276888 -0.16406250 0.28906250
v -0.31285822 -0.16406250 0.29687500
v -0.31646830 -0.16406250 0.30468750
v -0.31250000 -0.16406250 0.29723012
v -0.31367439 -0.16406250 0.31250000
v -0.31250000 -0.16406250 0.31415927
v -0.31250000 -0.15853608 0.25781250
v -0.31284738 -0.15625000 0.28125000
v -0.31272972 -0.15625000 0.28906250
v -0.31288320 -0.15625000 0.29687500
v -0.31627971 -0.15625000 0.30468750
v -0.31250000 -0.15625000 0.29715955
v -0.31291467 -0.15625000 0.31250000
v -0.31250000 -0.15625000 0.31313872
v -0.31287724 -0.14843750 0.28125000
v -0.31277990 -0.14843750 0.28906250
v -0.31307781 -0.14843750 0.29687500
v -0.31606114 -0.14843750 0.30468750
v -0.31250000 -0.14843750 0.29712236
v -0.31250000 -0.14843750 0.31175530
v -0.31250000 -0.15181047 0.31250000
v -0.31297576 -0.14062500 0.28125000
v -0.31285697 -0.14062500 0.28906250
v -0.31835777 -0.14062500 0.29687500
v -0.31250000 -0.14062500 0.29710436
v -0.31580114 -0.14062500 0.30468750
v -0.31720656 -0.14234132 0.29704440
v -0.31250000 -0.14062500 0.31070137
v -0.31338948 -0.13281250 0.28125000
v -0.31335509 -0.13281250 0.28906250
v -0.31522274 -0.13281250 0.30468750
v -0.31250000 -0.13281250 0.29712605
v -0.31250000 -0.13281250 0.30954456
v -0.31474686 -0.12500000 0.27343750
v -0.31316411 -0.12500000 0.28125000
v -0.31364542 -0.12500000 0.28906250
v -0.31473827 -0.12500000 0.30468750
v -0.31250000 -0.12500000 0.29690897
v -0.31250000 -0.12500000 0.30848956
v -0.31645411 -0.11718750 0.27343750
v -0.31299627 -0.11718750 0.28125000
v -0.31411886 -0.11718750 0.30468750
v -0.31250000 -0.11718750 0.29728496
v -0.31250000 -0.11718750 0.30753922
v -0.31637466 -0.10937500 0.27343750
v -0.31289369 -0.10937500 0.28125000
v -0.31351537 -0.10937500 0.30468750
v -0.31250000 -0.10937500 0.29753542
v -0.31250000 -0.10937500 0.30660069
v -0.31294918 -0.10156250 0.28125000
v -0.31271750 -0.10156250 0.30468750
v -0.31250000 -0.10156250 0.29933560
v -0.31250000 -0.10156250 0.30509245
v -0.31318939 -0.09375000 0.28125000
v -0.31250000 -0.09732783 0.30468750
v -0.31257164 -0.06250000 0.29687500
v -0.31250000 -0.06738865 0.29687500
v -0.31250000 -0.06250000 0.29332471
v -0.31250000 -0.06250000 0.29705250
v -0.31250000 -0.06224316 0.29687500
v -0.31256181 0.16406250 -0.25000000
v -0.31250000 0.15723407 -0.25000000
v -0.31250000 0.16406250 -0.25342327
v -0.31252640 0.16406250 -0.24218750
v -0.31250000 0.16379952 -0.24218750
v -0.31250000 0.16406250 -0.24201232
v -0.31250000 0.16770399 -0.25000000
v -0.31250000 0.17187500 -0.24873978
v -0.31289542 0.17187500 -0.24218750
v -0.31250000 0.17187500 -0.23666310
v -0.31279343 0.17968750 -0.24218750
v -0.31250000 0.17968750 -0.24805021
v -0.31250000 0.17373013 -0.23437500
v -0.31296659 0.17968750 -0.23437500
v -0.31281936 0.17968750 -0.22656250
v -0.31250000 0.17678130 -0.22656250
v -0.31250000 0.17968750 -0.22595441
v -0.31250000 0.18555021 -0.24218750
v -0.31250000 0.18750000 -0.23803335
v -0.31259531 0.18750000 -0.23437500
v -0.31284362 0.18750000 -0.22656250
v -0.31250000 0.18750000 -0.22534817
v -0.31250000 0.19115829 -0.23437500
v -0.31250000 0.19374216 -0.22656250
v -0.31250000 0.19531250 -0.22132170
v -0.31253541 0.19531250 -0.21875000
v -0.31250000 0.19513893 -0.21875000
v -0.31250000 0.19531250 -0.21869385
v -0.31250000 0.19788420 -0.21875000
v -0.31641328 0.28125000 -0.07812500
v -0.31250000 0.28123534 -0.07812500
v -0.31250000 0.28125000 -0.07991880
v -0.31250000 0.28117216 -0.07031250
v -0.31250000 0.28112197 -0.06250000
v -0.31250000 0.28105128 -0.05468750
v -0.31250000 0.28100801 -0.04687500
v -0.31250000 0.28113794 -0.03906250
v -0.31343663 0.28125000 -0.03125000
v -0.31250000 0.28125000 -0.03362590
v -0.31708241 0.28125000 -0.02343750
v -0.31987506 0.28125000 -0.01562500
v -0.31250000 0.28090453 0.13281250
v -0.31250000 0.28125000 0.12925291
v -0.31250000 0.28125000 0.13918066
v -0.31250000 0.28304386 -0.07812500
v -0.31250000 0.28601611 -0.07031250
v -0.31250000 0.28685975 -0.06250000
v -0.31250000 0.28747678 -0.05468750
v -0.31250000 0.28770673 -0.04687500
v -0.31250000 0.28658235 -0.03906250
v -0.31552798 0.28906250 0.07812500
v -0.31250000 0.28761816 0.13281250
v -0.30583024 -0.21875000 0.28906250
v -0.30610019 -0.21875000 0.29687500
v -0.30675381 -0.21093750 0.30468750
v -0.30511689 -0.19531250 0.31250000
v -0.30511224 -0.18750000 0.31250000
v -0.30862659 -0.18750000 0.32031250
v -0.30468750 -0.19469976 0.32031250
v -0.30468750 -0.18750000 0.31311274
v -0.30468750 -0.18750000 0.32220376
v -0.30498838 -0.17968750 0.31250000
v -0.30828261 -0.17968750 0.32031250
v -0.30468750 -0.17968750 0.31281757
v -0.30468750 -0.17968750 0.32292032
v -0.31113577 -0.17187500 0.25781250
v -0.30543506 -0.17187500 0.30468750
v -0.30468750 -0.17187500 0.30974090
v -0.30468750 -0.17463404 0.31250000
v -0.30700719 -0.17187500 0.32031250
v -0.30468750 -0.17187500 0.32213473
v -0.30697358 -0.16406250 0.25781250
v -0.30504268 -0.16406250 0.30468750
v -0.30468750 -0.16406250 0.31092954
v -0.30658078 -0.16406250 0.32031250
v -0.30468750 -0.16406250 0.32186794
v -0.30497205 -0.15625000 0.30468750
v -0.30468750 -0.16249204 0.31250000
v -0.30617839 -0.15625000 0.31250000
v -0.30468750 -0.15625000 0.31320655
v -0.30604976 -0.15625000 0.32031250
v -0.30468750 -0.15625000 0.32144558
v -0.30493492 -0.14843750 0.30468750
v -0.30577224 -0.14843750 0.32031250
v -0.30468750 -0.14843750 0.31332469
v -0.30468750 -0.14843750 0.32123268
v -0.30491686 -0.14062500 0.30468750
v -0.30525935 -0.14062500 0.32031250
v -0.30468750 -0.14062500 0.31385028
v -0.30468750 -0.14062500 0.32081103
v -0.30493861 -0.13281250 0.30468750
v -0.30468750 -0.13669723 0.32031250
v -0.30498809 -0.12500000 0.30468750
v -0.30509746 -0.11718750 0.30468750
v -0.30534792 -0.10937500 0.30468750
v -0.30714816 -0.10156250 0.30468750
v -0.30894971 -0.06250000 0.29687500
v -0.30482888 0.10156250 -0.22656250
v -0.30468750 0.09703541 -0.22656250
v -0.30468750 0.10156250 -0.23089713
v -0.30468750 0.10156250 -0.22625685
v -0.30489033 0.10937500 -0.23437500
v -0.30468750 0.10442817 -0.23437500
v -0.30468750 0.10937500 -0.23932177
v -0.30473834 0.10937500 -0.22656250
v -0.30468750 0.10937500 -0.22645813
v -0.30471534 0.11718750 -0.24218750
v -0.30468750 0.11587059 -0.24218750
v -0.30468750 0.11718750 -0.24350446
v -0.30514449 0.11718750 -0.23437500
v -0.30468750 0.11718750 -0.23167253
v -0.30468750 0.10982978 -0.22656250
v -0.30482674 0.12500000 -0.24218750
v -0.30468750 0.12500000 -0.24600589
v -0.30522275 0.12500000 -0.23437500
v -0.30468750 0.12500000 -0.23183906
v -0.30473900 0.13281250 -0.24218750
v -0.30468750 0.13281250 -0.24398029
v -0.30518478 0.13281250 -0.23437500
v -0.30468750 0.13054073 -0.22656250
v -0.30514759 0.13281250 -0.22656250
v -0.30468750 0.13281250 -0.22585344
v -0.30468750 0.13507485 -0.24218750
v -0.30468750 0.14062500 -0.24037760
v -0.30504245 0.14062500 -0.23437500
v -0.30521852 0.14062500 -0.22656250
v -0.30468750 0.14062500 -0.22560507
v -0.30480331 0.14843750 -0.23437500
v -0.30468750 0.14843750 -0.23725998
v -0.30509210 0.14843750 -0.22656250
v -0.30468750 0.14843750 -0.22541964
v -0.30468750 0.15132248 -0.23437500
v -0.30468750 0.15625000 -0.22940958
v -0.30482328 0.15625000 -0.22656250
v -0.30468750 0.15609586 -0.21875000
v -0.30471045 0.15625000 -0.21875000
v -0.30468750 0.15625000 -0.21871704
v -0.30907673 0.16406250 -0.25000000
v -0.31051922 0.16406250 -0.24218750
v -0.30468750 0.15942371 -0.22656250
v -0.30468750 0.16406250 -0.22472584
v -0.30494273 0.16406250 -0.21875000
v -0.30468750 0.16406250 -0.21836543
v -0.30607146 0.17187500 -0.24218750
v -0.30485207 0.17187500 -0.21875000
v -0.30468750 0.17187500 -0.22337753
v -0.30468750 0.17187500 -0.21849412
v -0.30663729 0.17968750 -0.24218750
v -0.30577588 0.17968750 -0.23437500
v -0.30609131 0.17968750 -0.22656250
v -0.30468750 0.17968750 -0.22093642
v -0.30474323 0.17968750 -0.21875000
v -0.30468750 0.17968750 -0.21865952
v -0.30884165 0.18750000 -0.23437500
v -0.30625778 0.18750000 -0.22656250
v -0.30468750 0.18187392 -0.21875000
v -0.30468750 0.18750000 -0.21249920
v -0.30470562 0.18750000 -0.21093750
v -0.30468750 0.18744159 -0.21093750
v -0.30468750 0.18750000 -0.21090913
v -0.30992830 0.19531250 -0.21875000
v -0.30468750 0.18906176 -0.21093750
v -0.31063616 0.28125000 -0.07812500
v -0.30468750 0.28125000 -0.07424343
v -0.30468750 0.28120244 -0.07031250
v -0.30468750 0.28114915 -0.06250000
v -0.30468750 0.28113306 -0.05468750
v -0.30468750 0.28108072 -0.04687500
v -0.30468750 0.28101265 -0.03906250
v -0.31102180 0.28125000 -0.03125000
v -0.30468750 0.28104234 -0.03125000
v -0.30580544 0.28125000 -0.02343750
v -0.30468750 0.28119612 -0.02343750
v -0.30468750 0.28125000 -0.02193820
v -0.30468750 0.28089821 0.13281250
v -0.30468750 0.28125000 0.13011694
v -0.30468750 0.28125000 0.13915241
v -0.30468750 0.28508329 -0.07031250
v -0.30468750 0.28646076 -0.06250000
v -0.30468750 0.28667605 -0.05468750
v -0.30468750 0.28723967 -0.04687500
v -0.30468750 0.28766751 -0.03906250
v -0.30468750 0.28750813 -0.03125000
v -0.30468750 0.28521478 -0.02343750
v -0.30491346 0.28906250 0.06250000
v -0.30468750 0.28905904 0.06250000
v -0.30468750 0.28906250 0.06227398
v -0.30783582 0.28906250 0.07031250
v -0.30468750 0.28900230 0.07031250
v -0.31150901 0.28906250 0.07812500
v -0.30468750 0.28892243 0.07812500
v -0.31054235 0.28906250 0.08593750
v -0.30468750 0.28901327 0.08593750
v -0.30468750 0.28906250 0.08819711
v -0.30468750 0.28758991 0.13281250
v -0.30468750 0.28928852 0.06250000
v -0.30468750 0.29176116 0.07031250
v -0.30468750 0.29343295 0.07812500
v -0.30468750 0.29132211 0.08593750
v -0.29691291 -0.20312500 0.32812500
v -0.29687500 -0.20401692 0.32812500
v -0.29687500 -0.20312500 0.32723308
v -0.29687500 -0.20312500 0.32814062
v -0.29687500 -0.20282632 0.32812500
v -0.29748774 -0.18750000 0.32031250
v -0.29719251 -0.17968750 0.32031250
v -0.30192846 -0.17187500 0.31250000
v -0.29731953 -0.17187500 0.32031250
v -0.30311704 -0.16406250 0.31250000
v -0.29738206 -0.16406250 0.32031250
v -0.29758149 -0.15625000 0.32031250
v -0.29769975 -0.14843750 0.32031250
v -0.29822534 -0.14062500 0.32031250
v -0.30035287 0.10156250 -0.22656250
v -0.29974073 0.10937500 -0.23437500
v -0.30198622 0.10937500 -0.22656250
v -0.30337054 0.11718750 -0.24218750
v -0.29828984 0.11718750 -0.23437500
v -0.30086911 0.12500000 -0.24218750
v -0.29819465 0.12500000 -0.23437500
v -0.30289471 0.13281250 -0.24218750
v -0.29842281 0.13281250 -0.23437500
v -0.29837811 0.13281250 -0.22656250
v -0.29915726 0.14062500 -0.23437500
v -0.29845572 0.14062500 -0.22656250
v -0.30180252 0.14843750 -0.23437500
v -0.29922003 0.14843750 -0.22656250
v -0.30184042 0.15625000 -0.22656250
v -0.30300796 0.15625000 -0.21875000
v -0.29897130 0.16406250 -0.21875000
v -0.30005997 0.17187500 -0.21875000
v -0.30250108 0.17968750 -0.21875000
v -0.30312580 0.18750000 -0.21093750
v -0.30209404 0.28125000 -0.07031250
v -0.29687500 0.28125000 -0.06522232
v -0.29687500 0.28119779 -0.06250000
v -0.29687500 0.28118038 -0.05468750
v -0.29687500 0.28117156 -0.04687500
v -0.29687500 0.28111386 -0.03906250
v -0.29687500 0.28115892 -0.03125000
v -0.29687500 0.28121603 -0.02343750
v -0.29687500 0.28125000 -0.02225739
v -0.30031967 0.28125000 0.12500000
v -0.29687500 0.28079009 0.12500000
v -0.29687500 0.28125000 0.12218809
v -0.29687500 0.28115046 0.13281250
v -0.29687500 0.28125000 0.13700068
v -0.29687500 0.28522682 -0.06250000
v -0.29687500 0.28572929 -0.05468750
v -0.29687500 0.28593397 -0.04687500
v -0.29687500 0.28688765 -0.03906250
v -0.29687500 0.28620493 -0.03125000
v -0.29687500 0.28431141 -0.02343750
v -0.30446154 0.28906250 0.06250000
v -0.30198890 0.28906250 0.07031250
v -0.30031705 0.28906250 0.07812500
v -0.30242789 0.28906250 0.08593750
v -0.29687500 0.28801322 0.12500000
v -0.29687500 0.28543818 0.13281250
v -0.29598308 -0.20312500 0.32812500
v -0.29289824 0.28125000 -0.06250000
v -0.29094720 0.28125000 -0.05468750
v -0.28953606 0.28125000 -0.04687500
v -0.28906250 0.28125000 -0.04583174
v -0.28906250 0.28121555 -0.03906250
v -0.28906250 0.28111112 -0.03125000
v -0.28906250 0.28120518 -0.02343750
v -0.28906250 0.28125000 -0.01991564
v -0.28906250 0.28097653 0.12500000
v -0.28906250 0.28125000 0.12007809
v -0.29268682 0.28125000 0.13281250
v -0.28906250 0.28125000 0.13116610
v -0.28906250 0.28426015 -0.03906250
v -0.28906250 0.28687823 -0.03125000
v -0.28906250 0.28478515 -0.02343750
v -0.28906250 0.28741610 0.12500000
v -0.28137064 -0.15625000 0.21093750
v -0.28125000 -0.15861446 0.21093750
v -0.28125000 -0.15625000 0.21085978
v -0.28125000 -0.15625000 0.21387255
v -0.28141963 -0.14843750 0.21093750
v -0.28125000 -0.14843750 0.21083927
v -0.28125000 -0.14843750 0.21434832
v -0.28142291 -0.14062500 0.21093750
v -0.28125000 -0.14062500 0.21084201
v -0.28125000 -0.14062500 0.21432030
v -0.28125000 -0.13890022 0.21093750
v -0.28699279 0.28125000 -0.04687500
v -0.28125000 0.28123498 -0.04687500
v -0.28125000 0.28125000 -0.05417466
v -0.28125000 0.28120840 -0.03906250
v -0.28125000 0.28113914 -0.03125000
v -0.28705406 0.28125000 -0.02343750
v -0.28125000 0.28125000 -0.02765542
v -0.28241962 0.28125000 0.04687500
v -0.28125000 0.28102255 0.04687500
v -0.28125000 0.28125000 0.04501617
v -0.28125000 0.28125000 0.05033028
v -0.28306365 0.28125000 0.10937500
v -0.28125000 0.28088868 0.10937500
v -0.28125000 0.28125000 0.10550928
v -0.28569120 0.28125000 0.11718750
v -0.28125000 0.28104246 0.11718750
v -0.28184015 0.28125000 0.12500000
v -0.28125000 0.28125000 0.12425375
v -0.28125000 0.28290141 -0.04687500
v -0.28125000 0.28458858 -0.03906250
v -0.28125000 0.28648877 -0.03125000
v -0.28125000 0.28749585 0.04687500
v -0.28125000 0.28784597 0.10937500
v -0.28125000 0.28705800 0.11718750
v -0.27831501 -0.15625000 0.21093750
v -0.27783918 -0.14843750 0.21093750
v -0.27786720 -0.14062500 0.21093750
v -0.28099972 0.28125000 -0.04687500
v -0.28037232 0.28125000 -0.03906250
v -0.27803558 0.28125000 -0.03125000
v -0.27343750 0.28106236 0.04687500
v -0.27343750 0.28125000 0.04000092
v -0.27634221 0.28125000 0.05468750
v -0.27343750 0.28106701 0.05468750
v -0.27497935 0.28125000 0.06250000
v -0.27343750 0.28100955 0.06250000
v -0.27488816 0.28125000 0.07031250
v -0.27343750 0.28093982 0.07031250
v -0.27455449 0.28125000 0.07812500
v -0.27343750 0.28096497 0.07812500
v -0.27462226 0.28125000 0.08593750
v -0.27343750 0.28096628 0.08593750
v -0.27542025 0.28125000 0.09375000
v -0.27343750 0.28087461 0.09375000
v -0.27666473 0.28125000 0.10156250
v -0.27343750 0.28098595 0.10156250
v -0.27343750 0.28114986 0.10937500
v -0.27544194 0.28125000 0.11718750
v -0.27343750 0.28125000 0.11393011
v -0.27343750 0.28714764 0.04687500
v -0.27343750 0.28709733 0.05468750
v -0.27343750 0.28751504 0.06250000
v -0.27343750 0.28782070 0.07031250
v -0.27343750 0.28771019 0.07812500
v -0.27343750 0.28767097 0.08593750
v -0.27343750 0.28791976 0.09375000
v -0.27343750 0.28746688 0.10156250
v -0.27343750 0.28580511 0.10937500
v -0.27247703 0.28125000 0.03906250
v -0.26562500 0.28106272 0.03906250
v -0.26562500 0.28125000 0.03774655
v -0.26685524 0.28125000 0.04687500
v -0.26562500 0.28125000 0.04561710
v -0.26759017 0.28125000 0.05468750
v -0.26612103 0.28125000 0.06250000
v -0.26562500 0.28125000 0.06454873
v -0.26562500 0.28119802 0.07031250
v -0.26562500 0.28114808 0.07812500
v -0.26562500 0.28112626 0.08593750
v -0.26562500 0.28118229 0.09375000
v -0.26666456 0.28125000 0.10156250
v -0.26562500 0.28125000 0.09852564
v -0.26888239 0.28125000 0.10937500
v -0.26562500 0.28710914 0.03906250
v -0.26562500 0.28465414 0.07031250
v -0.26562500 0.28593147 0.07812500
v -0.26562500 0.28624606 0.08593750
v -0.26562500 0.28503633 0.09375000
v -0.25781250 0.28124893 0.03906250
v -0.25781250 0.28125000 0.03899133
v -0.25781250 0.28125000 0.03918028
v -0.26222080 0.28125000 0.07031250
v -0.26094359 0.28125000 0.07812500
v -0.26062894 0.28125000 0.08593750
v -0.26183861 0.28125000 0.09375000
v -0.25781250 0.28136778 0.03906250
v -0.25769383 0.28125000 0.03906250
v 0.11655772 0.28125000 0.16406250
v 0.11718750 0.28119195 0.16406250
v 0.11718750 0.28125000 0.16380036
v 0.11718750 0.28125000 0.16759253
v 0.11718750 0.28478003 0.16406250
v 0.12500000 0.28122401 0.16406250
v 0.12500000 0.28125000 0.16387320
v 0.12500000 0.28125000 0.16607058
v 0.12500000 0.28325808 0.16406250
v 0.12923610 0.28125000 0.16406250
v 0.14057970 0.28125000 0.14062500
v 0.14062500 0.28124154 0.14062500
v 0.14062500 0.28125000 0.14048064
v 0.14062500 0.28125000 0.14176798
v 0.14062500 0.28200614 0.14062500
v 0.14138114 0.28125000 0.14062500
v 0.17070913 0.28125000 0.10937500
v 0.17187500 0.28120768 0.10937500
v 0.17187500 0.28125000 0.10892987
v 0.17187500 0.28125000 0.11299872
v 0.17187500 0.28398883 0.10937500
v 0.17461383 0.28125000 0.10937500
v 0.27586770 -0.17968750 0.21875000
v 0.28125000 -0.18506980 0.21875000
v 0.28125000 -0.17968750 0.21829581
v 0.28125000 -0.17968750 0.22413230
v 0.27401674 -0.17187500 0.21875000
v 0.28125000 -0.17187500 0.21698916
v 0.28125000 -0.17187500 0.22598326
v 0.27389562 -0.16406250 0.21875000
v 0.28125000 -0.16406250 0.21670234
v 0.28125000 -0.16406250 0.22610438
v 0.27385366 -0.15625000 0.21875000
v 0.28125000 -0.15625000 0.21653831
v 0.28125000 -0.15625000 0.22614634
v 0.27400661 -0.14843750 0.21875000
v 0.28125000 -0.14843750 0.21700859
v 0.28125000 -0.14843750 0.22599339
v 0.27417886 -0.14062500 0.21875000
v 0.28125000 -0.14062500 0.21739733
v 0.28125000 -0.14062500 0.22582114
v 0.27434111 -0.13281250 0.21875000
v 0.28125000 -0.13281250 0.21762156
v 0.28125000 -0.13281250 0.22565889
v 0.27463269 -0.12500000 0.21875000
v 0.28125000 -0.12500000 0.21791637
v 0.28125000 -0.12500000 0.22536731
v 0.27454388 -0.11718750 0.21875000
v 0.28125000 -0.11718750 0.21785903
v 0.28125000 -0.11718750 0.22545612
v 0.27484953 -0.10937500 0.21875000
v 0.28125000 -0.10937500 0.21806920
v 0.28125000 -0.10937500 0.22515047
v 0.28125000 -0.10297453 0.21875000
v 0.28171563 -0.18750000 0.21875000
v 0.28906250 -0.19484687 0.21875000
v 0.28906250 -0.18750000 0.21654010
v 0.28906250 -0.18750000 0.22609687
v 0.28906250 -0.17968750 0.21704578
v 0.28906250 -0.17968750 0.22602201
v 0.28906250 -0.17187500 0.21790624
v 0.28906250 -0.17187500 0.22555077
v 0.28906250 -0.16514832 0.21875000
v 0.28856802 -0.16406250 0.21875000
v 0.28848779 -0.15625000 0.21875000
v 0.28906250 -0.15238053 0.21875000
v 0.28906250 -0.14843750 0.21856070
v 0.28906250 -0.14843750 0.22335780
v 0.28906250 -0.14062500 0.21817267
v 0.28906250 -0.14062500 0.22518086
v 0.28906250 -0.13281250 0.21815681
v 0.28906250 -0.13281250 0.22522521
v 0.28906250 -0.12500000 0.21815383
v 0.28906250 -0.12500000 0.22523618
v 0.28906250 -0.11718750 0.21830702
v 0.28906250 -0.11718750 0.22489405
v 0.28906250 -0.10937500 0.21852207
v 0.28906250 -0.10937500 0.22378397
v 0.28269577 -0.10156250 0.21875000
v 0.28906250 -0.10156250 0.21815395
v 0.28906250 -0.10156250 0.22511673
v 0.28188658 -0.09375000 0.21875000
v 0.28906250 -0.09375000 0.21714962
v 0.28906250 -0.09375000 0.22592592
v 0.28906250 -0.08657402 0.21875000
v 0.28896117 0.27343750 0.14062500
v 0.28906250 0.27341485 0.14062500
v 0.28906250 0.27343750 0.13983023
v 0.28906250 0.27343750 0.14262950
v 0.28906250 0.27544200 0.14062500
v 0.29347575 -0.18750000 0.21875000
v 0.29236352 -0.17968750 0.21875000
v 0.29072046 -0.17187500 0.21875000
v 0.29687500 -0.16406250 0.22607374
v 0.29159379 -0.16406250 0.22656250
v 0.29687500 -0.16934377 0.22656250
v 0.29687500 -0.16406250 0.23184371
v 0.28959060 -0.15625000 0.22656250
v 0.29687500 -0.15625000 0.22425604
v 0.29687500 -0.15625000 0.23384690
v 0.28942287 -0.14843750 0.21875000
v 0.29687500 -0.14843750 0.22330618
v 0.28941357 -0.14843750 0.22656250
v 0.29687500 -0.14843750 0.23402393
v 0.29027903 -0.14062500 0.21875000
v 0.28941488 -0.14062500 0.22656250
v 0.29687500 -0.14062500 0.22299850
v 0.29687500 -0.14062500 0.23402262
v 0.29049861 -0.13281250 0.21875000
v 0.28946924 -0.13281250 0.22656250
v 0.29687500 -0.13281250 0.22298026
v 0.29687500 -0.13281250 0.23396826
v 0.29070354 -0.12500000 0.21875000
v 0.28952241 -0.12500000 0.22656250
v 0.29687500 -0.12500000 0.22292936
v 0.29687500 -0.12500000 0.23391509
v 0.29042804 -0.11718750 0.21875000
v 0.28965712 -0.11718750 0.22656250
v 0.29687500 -0.11718750 0.22335041
v 0.29687500 -0.11718750 0.23378038
v 0.28988957 -0.10937500 0.21875000
v 0.29687500 -0.10937500 0.22435200
v 0.29017246 -0.10937500 0.22656250
v 0.28996944 -0.11282700 0.22424793
v 0.29687500 -0.10937500 0.23326504
v 0.29104424 -0.10156250 0.21875000
v 0.29687500 -0.10267246 0.22656250
v 0.29338419 -0.09375000 0.21875000
v 0.29409826 0.09375000 -0.20312500
v 0.29687500 0.09069407 -0.20312500
v 0.29687500 0.09375000 -0.20590174
v 0.29687500 0.09375000 -0.20307034
v 0.29687500 0.09446251 -0.20312500
v 0.29323149 0.11718750 -0.21093750
v 0.29687500 0.11165285 -0.21093750
v 0.29687500 0.11718750 -0.21470559
v 0.29687500 0.11718750 -0.21071970
v 0.29238987 0.12500000 -0.21093750
v 0.29687500 0.12500000 -0.21775252
v 0.29687500 0.12500000 -0.21070409
v 0.29344094 0.13281250 -0.21093750
v 0.29687500 0.13281250 -0.21540689
v 0.29687500 0.13281250 -0.21080178
v 0.29421663 0.14062500 -0.21093750
v 0.29687500 0.14062500 -0.21399677
v 0.29687500 0.14062500 -0.21084046
v 0.29524684 0.14843750 -0.22656250
v 0.29687500 0.14680934 -0.22656250
v 0.29687500 0.14843750 -0.22819072
v 0.29687500 0.14843750 -0.22435433
v 0.29576862 0.14843750 -0.21093750
v 0.29687500 0.14843750 -0.21248448
v 0.29687500 0.14843750 -0.21090537
v 0.29353058 0.15625000 -0.22656250
v 0.29687500 0.15625000 -0.22990686
v 0.29687500 0.15394521 -0.21875000
v 0.29516780 0.15625000 -0.21875000
v 0.29338992 0.15625000 -0.21093750
v 0.29687500 0.15625000 -0.21079147
v 0.29175425 0.16406250 -0.22656250
v 0.29687500 0.16406250 -0.23168325
v 0.29687500 0.16406250 -0.22405666
v 0.29687500 0.15675700 -0.21875000
v 0.29687500 0.15688789 -0.21093750
v 0.29317617 0.17187500 -0.23437500
v 0.29687500 0.16817617 -0.23437500
v 0.29687500 0.17187500 -0.23456484
v 0.29687500 0.16518128 -0.22656250
v 0.29687500 0.17187500 -0.23380303
v 0.29687500 0.17209864 -0.23437500
v 0.29642463 0.27343750 0.11718750
v 0.29687500 0.27334464 0.11718750
v 0.29687500 0.27343750 0.11671555
v 0.29439926 0.27343750 0.12500000
v 0.29687500 0.27319431 0.12500000
v 0.29464853 0.27343750 0.13281250
v 0.29687500 0.27335417 0.13281250
v 0.29106700 0.27343750 0.14062500
v 0.29687500 0.27343750 0.13709724
v 0.29687500 0.27807212 0.11718750
v 0.29687500 0.27954423 0.12500000
v 0.29687500 0.27772224 0.13281250
v 0.29770947 -0.16406250 0.22656250
v 0.30029786 -0.15625000 0.22656250
v 0.30117798 -0.14843750 0.22656250
v 0.30226469 -0.14062500 0.22656250
v 0.30394924 -0.13281250 0.22656250
v 0.30468750 -0.13017458 0.22656250
v 0.30468750 -0.12500000 0.22597682
v 0.30468750 -0.12500000 0.23272216
v 0.30468750 -0.11718750 0.22580659
v 0.30468750 -0.11718750 0.23302531
v 0.30468750 -0.10937500 0.22534311
v 0.30468750 -0.10937500 0.23350227
v 0.29750896 -0.10156250 0.22656250
v 0.30468750 -0.10156250 0.22484767
v 0.30468750 -0.10156250 0.23374104
v 0.30040467 -0.09375000 0.22656250
v 0.30468750 -0.09375000 0.22630012
v 0.30468750 -0.09375000 0.23084533
v 0.30468750 -0.08946717 0.22656250
v 0.30254626 0.06250000 -0.21093750
v 0.30468750 0.06035876 -0.21093750
v 0.30468750 0.06250000 -0.21307874
v 0.30468750 0.06250000 -0.21087056
v 0.29944324 0.07031250 -0.21093750
v 0.30468750 0.07031250 -0.21618176
v 0.30468750 0.07031250 -0.21067315
v 0.30468750 0.07246852 -0.21093750
v 0.30043554 0.08593750 -0.21875000
v 0.30468750 0.08168554 -0.21875000
v 0.30468750 0.08593750 -0.22300196
v 0.30468750 0.08593750 -0.21847588
v 0.29954100 0.09375000 -0.22656250
v 0.30468750 0.08860350 -0.22656250
v 0.30468750 0.09375000 -0.23177332
v 0.29832077 0.09375000 -0.21875000
v 0.30468750 0.09375000 -0.21819592
v 0.29691374 0.09375000 -0.20312500
v 0.29827869 0.10156250 -0.22656250
v 0.30468750 0.10156250 -0.22842401
v 0.30468750 0.10156250 -0.22557282
v 0.30468750 0.09470892 -0.21875000
v 0.30468750 0.10274899 -0.22656250
v 0.29693592 0.11718750 -0.21093750
v 0.29695785 0.12500000 -0.21093750
v 0.29691887 0.13281250 -0.21093750
v 0.29690206 0.14062500 -0.21093750
v 0.29688859 0.14843750 -0.22656250
v 0.29688299 0.14843750 -0.21093750
v 0.29691017 0.15625000 -0.22656250
v 0.29688859 0.15625000 -0.21875000
v 0.29691112 0.15625000 -0.21093750
v 0.29695296 0.16406250 -0.22656250
v 0.29690802 0.17187500 -0.23437500
v 0.30354118 0.27343750 0.10937500
v 0.30468750 0.27322865 0.10937500
v 0.30468750 0.27343750 0.10802150
v 0.30468750 0.27322900 0.11718750
v 0.30468750 0.27335060 0.12500000
v 0.30196667 0.27343750 0.13281250
v 0.30468750 0.27343750 0.12995422
v 0.30468750 0.27965593 0.10937500
v 0.30468750 0.27941310 0.11718750
v 0.30468750 0.27757347 0.12500000
v 0.30740774 -0.21093750 0.27343750
v 0.31250000 -0.21668583 0.27343750
v 0.31250000 -0.21093750 0.27217269
v 0.31250000 -0.21093750 0.27852976
v 0.31086636 -0.20312500 0.26562500
v 0.31250000 -0.20333248 0.26562500
v 0.31250000 -0.20312500 0.26504993
v 0.31250000 -0.20584524 0.27343750
v 0.31250000 -0.20312500 0.26725864
v 0.30573618 -0.19531250 0.25781250
v 0.31250000 -0.20046622 0.25781250
v 0.31250000 -0.19531250 0.25508749
v 0.31250000 -0.20149136 0.26562500
v 0.31250000 -0.19531250 0.26457632
v 0.31250000 -0.18854874 0.25781250
v 0.30595589 -0.17187500 0.25000000
v 0.31250000 -0.17893267 0.25000000
v 0.31250000 -0.17187500 0.24887502
v 0.31250000 -0.17187500 0.25654411
v 0.30553532 -0.16406250 0.25000000
v 0.31250000 -0.16406250 0.24795508
v 0.31250000 -0.16406250 0.25696468
v 0.30804420 -0.16406250 0.32031250
v 0.31250000 -0.16851836 0.32031250
v 0.31250000 -0.16406250 0.31585670
v 0.31250000 -0.16406250 0.32052684
v 0.30673611 -0.15625000 0.25000000
v 0.31250000 -0.15625000 0.24886513
v 0.31250000 -0.15625000 0.25576389
v 0.30671859 -0.15625000 0.32031250
v 0.31250000 -0.15625000 0.31453109
v 0.31250000 -0.15625000 0.32074189
v 0.30966103 -0.14843750 0.25000000
v 0.31250000 -0.14843750 0.24938357
v 0.31250000 -0.14843750 0.25283897
v 0.30569184 -0.14843750 0.32031250
v 0.31250000 -0.14843750 0.31350434
v 0.31250000 -0.14843750 0.32126427
v 0.30651844 -0.14062500 0.24218750
v 0.31250000 -0.14319527 0.24218750
v 0.31250000 -0.14062500 0.24145293
v 0.31250000 -0.14559853 0.25000000
v 0.31250000 -0.14062500 0.24816906
v 0.30546176 -0.14062500 0.32031250
v 0.31250000 -0.14062500 0.31327426
v 0.31250000 -0.14062500 0.32156253
v 0.30521333 -0.13281250 0.24218750
v 0.31250000 -0.13281250 0.23851466
v 0.31250000 -0.13281250 0.24947417
v 0.30532789 -0.13281250 0.32031250
v 0.31250000 -0.13281250 0.31314039
v 0.31250000 -0.13281250 0.32182050
v 0.30526412 -0.12500000 0.22656250
v 0.30794060 -0.12500000 0.24218750
v 0.31250000 -0.12500000 0.23935378
v 0.31250000 -0.12500000 0.24674690
v 0.30507350 -0.12500000 0.32031250
v 0.31250000 -0.12500000 0.31288600
v 0.31250000 -0.12500000 0.32253397
v 0.30546606 -0.11718750 0.22656250
v 0.31250000 -0.12159491 0.23437500
v 0.31250000 -0.11718750 0.23383892
v 0.30655324 -0.11718750 0.23437500
v 0.31250000 -0.11718750 0.24032176
v 0.31250000 -0.12044054 0.24218750
v 0.30531800 -0.11718750 0.32031250
v 0.31250000 -0.11718750 0.31313050
v 0.31250000 -0.11718750 0.32173073
v 0.30609095 -0.10937500 0.22656250
v 0.30600047 -0.11367822 0.23330247
v 0.31250000 -0.10937500 0.23277855
v 0.30544400 -0.10937500 0.23437500
v 0.31250000 -0.10937500 0.24143100
v 0.30531001 -0.10937500 0.31250000
v 0.31250000 -0.11656499 0.31250000
v 0.31250000 -0.10937500 0.30531001
v 0.31250000 -0.10937500 0.31811440
v 0.31250000 -0.11159521 0.32031250
v 0.30676973 -0.10156250 0.22656250
v 0.30647051 -0.10156250 0.23437500
v 0.31250000 -0.10156250 0.23361015
v 0.31250000 -0.10156250 0.24040449
v 0.30505252 -0.10156250 0.31250000
v 0.31250000 -0.10156250 0.30505252
v 0.31250000 -0.10156250 0.31669247
v 0.30500793 -0.09375000 0.22656250
v 0.31250000 -0.09553295 0.23437500
v 0.30506051 -0.09375000 0.31250000
v 0.31250000 -0.09375000 0.30506051
v 0.31250000 -0.09375000 0.31623363
v 0.30568767 -0.08593750 0.31250000
v 0.31250000 -0.08593750 0.30568767
v 0.31250000 -0.08593750 0.31444740
v 0.31250000 -0.07912523 0.31250000
v 0.30961490 0.04687500 -0.22656250
v 0.31250000 0.04398990 -0.22656250
v 0.31250000 0.04687500 -0.22944754
v 0.30913889 0.04687500 -0.21875000
v 0.31250000 0.04351389 -0.21875000
v 0.31250000 0.04687500 -0.21860939
v 0.30638850 0.05468750 -0.22656250
v 0.31250000 0.05468750 -0.23290205
v 0.31250000 0.05468750 -0.22527283
v 0.31250000 0.04718673 -0.21875000
v 0.31250000 0.05626285 -0.22656250
v 0.30471814 0.06250000 -0.21093750
v 0.30481851 0.07031250 -0.21093750
v 0.30475736 0.08593750 -0.21875000
v 0.30477381 0.09375000 -0.22656250
v 0.30488348 0.09375000 -0.21875000
v 0.30485892 0.10156250 -0.22656250
v 0.31209266 0.27343750 0.10156250
v 0.31250000 0.27338743 0.10156250
v 0.31250000 0.27343750 0.10119200
v 0.31250000 0.27331293 0.10937500
v 0.31250000 0.27336633 0.11718750
v 0.30946553 0.27343750 0.12500000
v 0.31250000 0.27343750 0.12182856
v 0.31250000 0.27739000 0.10156250
v 0.31250000 0.27885044 0.10937500
v 0.31250000 0.27743065 0.11718750
v 0.31260705 -0.21093750 0.27343750
v 0.31251824 -0.20312500 0.26562500
v 0.31296456 -0.19531250 0.25781250
v 0.31362545 -0.17968750 0.29687500
v 0.32031250 -0.18367004 0.29687500
v 0.32031250 -0.17968750 0.29097402
v 0.32031250 -0.17968750 0.30055785
v 0.31287944 -0.17187500 0.25000000
v 0.31391525 -0.17187500 0.28906250
v 0.32031250 -0.17735445 0.28906250
v 0.32031250 -0.17187500 0.28763092
v 0.31306207 -0.17187500 0.29687500
v 0.32031250 -0.17187500 0.30366290
v 0.31312263 -0.16406250 0.25000000
v 0.31319630 -0.16406250 0.28906250
v 0.32031250 -0.16406250 0.28565037
v 0.31297314 -0.16406250 0.29687500
v 0.32031250 -0.16898441 0.30468750
v 0.31431055 -0.16406250 0.30468750
v 0.32031250 -0.16406250 0.30540991
v 0.31264436 -0.16406250 0.32031250
v 0.31273830 -0.15625000 0.25000000
v 0.31302345 -0.15625000 0.28906250
v 0.32031250 -0.15625000 0.28314126
v 0.31298590 -0.15625000 0.29687500
v 0.31394506 -0.15625000 0.30468750
v 0.32031250 -0.15625000 0.30579209
v 0.31280315 -0.15625000 0.32031250
v 0.31255436 -0.14843750 0.25000000
v 0.31394780 -0.14843750 0.28125000
v 0.32031250 -0.15232092 0.28125000
v 0.32031250 -0.14843750 0.27988839
v 0.31310749 -0.14843750 0.28906250
v 0.31298053 -0.14843750 0.29687500
v 0.31329727 -0.14843750 0.30468750
v 0.32031250 -0.14843750 0.30673826
v 0.31316864 -0.14843750 0.32031250
v 0.31276846 -0.14062500 0.24218750
v 0.31303656 -0.14062500 0.28125000
v 0.32031250 -0.14062500 0.27719283
v 0.31306148 -0.14062500 0.28906250
v 0.31291199 -0.14062500 0.29687500
v 0.31314588 -0.14062500 0.30468750
v 0.32031250 -0.14062500 0.30718851
v 0.31343341 -0.14062500 0.32031250
v 0.31362677 -0.13281250 0.24218750
v 0.31280375 -0.13281250 0.28125000
v 0.32031250 -0.13281250 0.27345467
v 0.31326592 -0.13281250 0.28906250
v 0.31293511 -0.13281250 0.29687500
v 0.31299448 -0.13281250 0.30468750
v 0.32031250 -0.13281250 0.30771279
v 0.31365073 -0.13281250 0.32031250
v 0.31266034 -0.12500000 0.24218750
v 0.31306553 -0.12500000 0.27343750
v 0.32031250 -0.13277948 0.27343750
v 0.32031250 -0.12500000 0.26875401
v 0.31294119 -0.12500000 0.28125000
v 0.31365287 -0.12500000 0.28906250
v 0.31288457 -0.12500000 0.29687500
v 0.31300938 -0.12500000 0.30468750
v 0.32031250 -0.12500000 0.30734241
v 0.31419432 -0.12500000 0.32031250
v 0.31281626 -0.11718750 0.23437500
v 0.31690788 -0.11718750 0.26562500
v 0.32031250 -0.11783397 0.26562500
v 0.32031250 -0.11718750 0.26527452
v 0.31280446 -0.11718750 0.27343750
v 0.31299329 -0.11718750 0.28125000
v 0.31324852 -0.11718750 0.28906250
v 0.31282067 -0.11718750 0.29687500
v 0.32031250 -0.11718750 0.30365467
v 0.32031250 -0.11874110 0.30468750
v 0.31343305 -0.11718750 0.32031250
v 0.31346905 -0.10937500 0.23437500
v 0.31518531 -0.10937500 0.25781250
v 0.32031250 -0.11018759 0.25781250
v 0.32031250 -0.10937500 0.25703919
v 0.31292868 -0.10937500 0.26562500
v 0.31334949 -0.10937500 0.27343750
v 0.31349826 -0.10937500 0.28125000
v 0.31317067 -0.10937500 0.28906250
v 0.31283629 -0.10937500 0.29687500
v 0.32031250 -0.10937500 0.30169511
v 0.31381047 -0.10937500 0.31250000
v 0.31296515 -0.10156250 0.23437500
v 0.31312811 -0.10156250 0.25781250
v 0.32031250 -0.10156250 0.25281405
v 0.31441700 -0.10156250 0.26562500
v 0.32031250 -0.10156250 0.27152050
v 0.32031250 -0.10241193 0.27343750
v 0.32031250 -0.10256082 0.28125000
v 0.32031250 -0.10156250 0.28225875
v 0.31350875 -0.10156250 0.28906250
v 0.31294155 -0.10156250 0.29687500
v 0.32031250 -0.10156250 0.30046630
v 0.31437409 -0.10156250 0.31250000
v 0.31326783 -0.09375000 0.25781250
v 0.32031250 -0.09375000 0.25232267
v 0.32031250 -0.09375000 0.26485717
v 0.32031250 -0.09566694 0.26562500
v 0.31364238 -0.09375000 0.28906250
v 0.32031250 -0.09375000 0.28239238
v 0.31304312 -0.09375000 0.29687500
v 0.32031250 -0.09375000 0.30001938
v 0.31438529 -0.09375000 0.31250000
v 0.32031250 -0.08670539 0.25781250
v 0.32031250 -0.08635551 0.28906250
v 0.32031250 -0.08593750 0.28929532
v 0.31316519 -0.08593750 0.29687500
v 0.32031250 -0.08593750 0.29942834
v 0.31335294 -0.08593750 0.31250000
v 0.31332791 -0.07812500 0.29687500
v 0.32031250 -0.07812500 0.28989041
v 0.32031250 -0.07812500 0.29899168
v 0.32031250 -0.07188708 0.29687500
v 0.31448042 -0.05468750 0.28906250
v 0.32031250 -0.06077820 0.28906250
v 0.32031250 -0.05468750 0.28323042
v 0.32031250 -0.05468750 0.28993869
v 0.32031250 -0.04983217 0.28906250
v 0.31253195 0.04687500 -0.22656250
v 0.31253588 0.04687500 -0.21875000
v 0.31265950 0.05468750 -0.22656250
v 0.31314778 0.27343750 0.10156250
v 0.32031250 0.27343750 0.10852826
v 0.32031250 0.27335691 0.10937500
v 0.31828249 0.27343750 0.11718750
v 0.32031250 0.27343750 0.11554289
v 0.32031250 0.27796268 0.10937500
v 0.32066500 -0.17968750 0.29687500
v 0.32058835 -0.17187500 0.28906250
v 0.32109571 -0.17187500 0.29687500
v 0.32094467 -0.16406250 0.28906250
v 0.32130730 -0.16406250 0.29687500
v 0.32053661 -0.16406250 0.30468750
v 0.32120383 -0.15625000 0.28906250
v 0.32132792 -0.15625000 0.29687500
v 0.32062280 -0.15625000 0.30468750
v 0.32060325 -0.14843750 0.28125000
v 0.32116330 -0.14843750 0.28906250
v 0.32142806 -0.14843750 0.29687500
v 0.32094479 -0.14843750 0.30468750
v 0.32119334 -0.14062500 0.28125000
v 0.32129991 -0.14062500 0.28906250
v 0.32172036 -0.14062500 0.29687500
v 0.32114065 -0.14062500 0.30468750
v 0.32187808 -0.13281250 0.28125000
v 0.32111108 -0.13281250 0.28906250
v 0.32173789 -0.13281250 0.29687500
v 0.32140660 -0.13281250 0.30468750
v 0.32116735 -0.12500000 0.27343750
v 0.32154906 -0.12500000 0.28125000
v 0.32086611 -0.12500000 0.28906250
v 0.32183599 -0.12500000 0.29687500
v 0.32134688 -0.12500000 0.30468750
v 0.32036495 -0.11718750 0.26562500
v 0.32187259 -0.11718750 0.27343750
v 0.32149243 -0.11718750 0.28125000
v 0.32118058 -0.11718750 0.28906250
v 0.32198155 -0.11718750 0.29687500
v 0.32044029 -0.10937500 0.25781250
v 0.32139766 -0.10937500 0.26562500
v 0.32094586 -0.10937500 0.27343750
v 0.32093441 -0.10937500 0.28125000
v 0.32128692 -0.10937500 0.28906250
v 0.32189536 -0.10937500 0.29687500
v 0.32105911 -0.10156250 0.25781250
v 0.32055700 -0.10156250 0.26562500
v 0.32095170 -0.10156250 0.28906250
v 0.32152855 -0.10156250 0.29687500
v 0.32092834 -0.09375000 0.25781250
v 0.32088423 -0.09375000 0.28906250
v 0.32127380 -0.09375000 0.29687500
v 0.32106471 -0.08593750 0.29687500
v 0.32089746 -0.07812500 0.29687500
v 0.32051611 -0.05468750 0.28906250
v 0.32111728 0.27343750 0.10937500
v 0.32812500 0.27324605 0.11718750
v 0.32812500 0.27343750 0.11583138
v 0.32130647 0.27343750 0.11718750
v 0.32454610 0.27343750 0.12500000
v 0.32812500 0.27336001 0.12500000
v 0.32812500 0.27343750 0.13115644
v 0.32812500 0.27902913 0.11718750
v 0.32812500 0.27701640 0.12500000
v 0.32914531 0.27343750 0.11718750
v 0.33593750 0.27343750 0.12475348
v 0.33593750 0.27338398 0.12500000
v 0.32824993 0.27343750 0.13281250
v 0.33593750 0.27198207 0.13281250
v 0.32857239 0.27343750 0.14062500
v 0.33593750 0.27170277 0.14062500
v 0.32897401 0.27343750 0.14843750
v 0.33593750 0.27236795 0.14843750
v 0.32942104 0.27343750 0.15625000
v 0.33593750 0.27261758 0.15625000
v 0.33593750 0.27343750 0.16276646
v 0.32931900 0.27343750 0.18750000
v 0.33593750 0.27221382 0.18750000
v 0.33593750 0.27343750 0.18088150
v 0.32843983 0.27343750 0.19531250
v 0.33593750 0.26991951 0.19531250
v 0.32839012 0.27343750 0.20312500
v 0.33593750 0.26967978 0.20312500
v 0.32839942 0.27343750 0.21093750
v 0.33593750 0.26981604 0.21093750
v 0.32891536 0.27343750 0.21875000
v 0.33593750 0.27165067 0.21875000
v 0.33593750 0.27343750 0.22577214
v 0.32899725 0.28125000 -0.19531250
v 0.33593750 0.28022289 -0.19531250
v 0.33593750 0.28125000 -0.19631934
v 0.33593750 0.28125000 -0.18837219
v 0.33593750 0.27619660 0.12500000
v 0.33593750 0.28072882 0.13281250
v 0.33593750 0.28080261 0.14062500
v 0.33593750 0.28040099 0.14843750
v 0.33593750 0.27995396 0.15625000
v 0.33593750 0.28005600 0.18750000
v 0.33593750 0.28093517 0.19531250
v 0.33593750 0.28098488 0.20312500
v 0.33593750 0.28097558 0.21093750
v 0.33593750 0.28045964 0.21875000
v 0.32902610 0.28906250 -0.19531250
v 0.33593750 0.28906250 -0.19918197
v 0.33593750 0.28906250 -0.18840104
v 0.32895458 0.29687500 -0.20312500
v 0.33593750 0.29282427 -0.20312500
v 0.33593750 0.29687500 -0.20414799
v 0.32914662 0.29687500 -0.19531250
v 0.33593750 0.29687500 -0.18798071
v 0.33420992 0.30468750 -0.20312500
v 0.33593750 0.30468750 -0.20316225
v 0.33164406 0.30468750 -0.19531250
v 0.33593750 0.30468750 -0.19101906
v 0.33593750 0.30484390 -0.20312500
v 0.33593750 0.30898094 -0.19531250
v 0.33605254 0.27343750 0.12500000
v 0.33938527 0.27343750 0.13281250
v 0.34375000 0.27343750 0.14037311
v 0.34375000 0.27338016 0.14062500
v 0.34375000 0.27253807 0.14843750
v 0.34375000 0.27182364 0.15625000
v 0.33632720 0.27343750 0.16406250
v 0.34375000 0.27133715 0.16406250
v 0.33627939 0.27343750 0.17187500
v 0.34375000 0.27103198 0.17187500
v 0.33628213 0.27343750 0.17968750
v 0.34375000 0.27098274 0.17968750
v 0.34375000 0.27070904 0.18750000
v 0.34375000 0.27036858 0.19531250
v 0.34375000 0.27022099 0.20312500
v 0.34375000 0.27073252 0.21093750
v 0.34375000 0.27114344 0.21875000
v 0.33659840 0.27343750 0.22656250
v 0.34375000 0.27210963 0.22656250
v 0.34375000 0.27343750 0.23210502
v 0.33611751 0.28125000 -0.19531250
v 0.34375000 0.27633643 0.14062500
v 0.34375000 0.28045964 0.14843750
v 0.34375000 0.28077137 0.15625000
v 0.34375000 0.28086030 0.16406250
v 0.34375000 0.28090811 0.17187500
v 0.34375000 0.28090537 0.17968750
v 0.34375000 0.28093565 0.18750000
v 0.34375000 0.28093338 0.19531250
v 0.34375000 0.28091741 0.20312500
v 0.34375000 0.28087342 0.21093750
v 0.34375000 0.28085530 0.21875000
v 0.34375000 0.28058910 0.22656250
v 0.33610547 0.28906250 -0.19531250
v 0.33768666 0.28906250 -0.16406250
v 0.34375000 0.28787851 -0.16406250
v 0.34375000 0.28906250 -0.16567791
v 0.33717752 0.28906250 -0.15625000
v 0.34375000 0.28775644 -0.15625000
v 0.34375000 0.28906250 -0.15052420
v 0.33605373 0.29687500 -0.20312500
v 0.33606136 0.29687500 -0.19531250
v 0.33639181 0.29687500 -0.17187500
v 0.34375000 0.29258478 -0.17187500
v 0.34375000 0.29687500 -0.17339826
v 0.33644581 0.29687500 -0.16406250
v 0.33675671 0.29687500 -0.15625000
v 0.34375000 0.29150498 -0.14843750
v 0.33742654 0.29687500 -0.14843750
v 0.34375000 0.29687500 -0.14160269
v 0.33594096 0.30468750 -0.20312500
v 0.33595681 0.30468750 -0.19531250
v 0.33628392 0.30468750 -0.17187500
v 0.34375000 0.30468750 -0.17317903
v 0.33645570 0.30468750 -0.16406250
v 0.33681595 0.30468750 -0.15625000
v 0.33743382 0.30468750 -0.14843750
v 0.34375000 0.29930699 -0.14062500
v 0.33927047 0.30468750 -0.14062500
v 0.34375000 0.30468750 -0.13310665
v 0.34375000 0.30744183 -0.17187500
v 0.34375000 0.31250000 -0.16621619
v 0.33642387 0.31250000 -0.16406250
v 0.33684886 0.31250000 -0.15625000
v 0.33810258 0.31250000 -0.14843750
v 0.34375000 0.31250000 -0.14278722
v 0.34375000 0.30917048 -0.14062500
v 0.34375000 0.31616855 -0.16406250
v 0.34375000 0.32031250 -0.15850365
v 0.33692670 0.32031250 -0.15625000
v 0.34167302 0.32031250 -0.14843750
v 0.34375000 0.32031250 -0.14636046
v 0.34375000 0.32076919 -0.15625000
v 0.34375000 0.32037508 -0.14843750
v 0.34381628 0.27343750 0.14062500
v 0.34491205 0.27343750 0.14843750
v 0.34611166 0.27343750 0.15625000
v 0.34706306 0.27343750 0.16406250
v 0.34787428 0.27343750 0.17187500
v 0.34797585 0.27343750 0.17968750
v 0.34811175 0.27343750 0.18750000
v 0.34840059 0.27343750 0.19531250
v 0.34808576 0.27343750 0.20312500
v 0.34724104 0.27343750 0.21093750
v 0.34650218 0.27343750 0.21875000
v 0.34518933 0.27343750 0.22656250
v 0.34592533 0.28125000 0.12500000
v 0.35156250 0.28106058 0.12500000
v 0.35156250 0.28125000 0.12366545
v 0.34554899 0.28125000 0.13281250
v 0.35156250 0.28096294 0.13281250
v 0.35156250 0.28081739 0.14062500
v 0.34529912 0.28125000 0.14062500
v 0.34449828 0.27783310 0.14295161
v 0.34459829 0.28125000 0.14843750
v 0.35156250 0.28016400 0.14843750
v 0.35156250 0.27874672 0.15625000
v 0.34419203 0.28125000 0.15625000
v 0.35156250 0.27885556 0.16406250
v 0.34437847 0.28125000 0.16406250
v 0.35156250 0.28078759 0.17187500
v 0.34725428 0.28125000 0.17187500
v 0.35156250 0.28125000 0.17618322
v 0.34379745 0.28906250 -0.16406250
v 0.34383821 0.28906250 -0.15625000
v 0.35156250 0.28688717 0.12500000
v 0.35156250 0.28726351 0.13281250
v 0.35156250 0.28751338 0.14062500
v 0.35156250 0.28821421 0.14843750
v 0.35156250 0.28862047 0.15625000
v 0.35156250 0.28843403 0.16406250
v 0.35156250 0.28555822 0.17187500
v 0.34392238 0.29687500 -0.17187500
v 0.34393811 0.29687500 -0.16406250
v 0.34389102 0.29687500 -0.15625000
v 0.34383869 0.29687500 -0.14843750
v 0.34395719 0.30468750 -0.17187500
v 0.34392309 0.30468750 -0.16406250
v 0.34387314 0.30468750 -0.15625000
v 0.34383392 0.30468750 -0.14843750
v 0.34378517 0.30468750 -0.14062500
v 0.34390402 0.31250000 -0.16406250
v 0.34385037 0.31250000 -0.15625000
v 0.34379590 0.31250000 -0.14843750
v 0.34641623 0.31250000 -0.10937500
v 0.35156250 0.31222165 -0.10937500
v 0.35156250 0.31250000 -0.10966259
v 0.34426761 0.31250000 -0.10156250
v 0.35156250 0.31087196 -0.10156250
v 0.34453416 0.31250000 -0.09375000
v 0.35156250 0.31136060 -0.09375000
v 0.34555292 0.31250000 -0.08593750
v 0.35156250 0.31194043 -0.08593750
v 0.35156250 0.31250000 -0.07992792
v 0.34382701 0.32031250 -0.15625000
v 0.34375548 0.32031250 -0.14843750
v 0.34433925 0.32031250 -0.10937500
v 0.35156250 0.32031250 -0.11116809
v 0.34477127 0.32031250 -0.10156250
v 0.34664810 0.32031250 -0.09375000
v 0.35156250 0.32031250 -0.08883566
v 0.35156250 0.31850958 -0.08593750
v 0.35156250 0.32094646 -0.10937500
v 0.35156250 0.32119250 -0.10156250
v 0.35156250 0.32263684 -0.09375000
v 0.35176003 0.28125000 0.12500000
v 0.35204625 0.28125000 0.13281250
v 0.35240400 0.28125000 0.14062500
v 0.35373247 0.28125000 0.14843750
v 0.35643280 0.28125000 0.15625000
v 0.35922813 0.28125000 0.16406250
v 0.35201478 0.28125000 0.17187500
v 0.35158300 0.31250000 -0.10937500
v 0.35174227 0.31250000 -0.10156250
v 0.35171700 0.31250000 -0.09375000
v 0.35166252 0.31250000 -0.08593750
v 0.35168099 0.32031250 -0.10937500
v 0.35164249 0.32031250 -0.10156250
v 0.35158896 0.32031250 -0.09375000
v 0.35323262 0.32031250 -0.04687500
v 0.35937500 0.31752408 -0.04687500
v 0.35937500 0.32031250 -0.05101424
v 0.35519123 0.32031250 -0.03906250
v 0.35937500 0.31976140 -0.03906250
v 0.35487556 0.32031250 -0.03125000
v 0.35937500 0.31966615 -0.03125000
v 0.35806656 0.32031250 -0.02343750
v 0.35937500 0.32019937 -0.02343750
v 0.35937500 0.32031250 -0.02211827
v 0.35937500 0.32055998 -0.04687500
v 0.35937500 0.32043374 -0.03906250
v 0.35937500 0.32047844 -0.03125000
v 0.35937500 0.32034743 -0.02343750
v 0.35944283 0.32031250 -0.04687500
v 0.35939813 0.32031250 -0.03906250
v 0.35940456 0.32031250 -0.03125000
v 0.35937941 0.32031250 -0.02343750
f 3 2 1
f 5 4 1
f 5 1 2
f 7 6 4
f 7 4 5
f 9 8 6
f 9 6 7
f 10 8 9
f 13 12 11
f 15 14 11
f 15 11 12
f 17 16 14
f 17 14 15
f 19 18 16
f 19 16 17
f 20 18 19
f 23 22 21
f 25 24 21
f 25 21 22
f 27 26 24
f 27 24 25
f 29 28 26
f 29 26 27
f 31 30 28
f 31 28 29
f 33 32 30
f 33 30 31
f 35 34 32
f 35 32 33
f 37 36 34
f 37 34 35
f 36 37 3
f 1 36 3
f 38 36 1
f 4 40 39
f 38 4 39
f 1 4 38
f 40 4 6
f 40 6 41
f 41 6 8
f 41 8 42
f 42 8 10
f 43 13 11
f 43 11 14
f 43 14 44
f 44 14 16
f 44 16 45
f 45 16 18
f 45 18 46
f 46 18 20
f 47 23 21
f 47 21 24
f 47 24 48
f 48 24 26
f 48 26 49
f 49 26 28
f 49 28 50
f 50 28 30
f 50 30 51
f 51 30 32
f 51 32 52
f 52 32 34
f 52 34 53
f 53 34 36
f 53 36 54
f 54 36 38
f 54 38 55
f 55 38 39
f 58 57 56
f 59 56 57
f 3 60 2
f 2 60 61
f 62 2 61
f 5 2 62
f 62 64 63
f 7 62 63
f 5 62 7
f 65 9 7
f 65 7 63
f 65 10 9
f 13 66 12
f 67 15 12
f 67 12 66
f 68 17 15
f 68 15 67
f 69 19 17
f 69 17 68
f 56 70 58
f 20 19 69
f 70 56 59
f 23 71 22
f 72 25 22
f 72 22 71
f 73 27 25
f 73 25 72
f 74 29 27
f 74 27 73
f 75 31 29
f 75 29 74
f 76 33 31
f 76 31 75
f 77 35 33
f 77 33 76
f 78 37 35
f 78 35 77
f 60 3 37
f 78 60 37
f 79 60 78
f 40 80 39
f 80 60 39
f 60 79 39
f 60 80 61
f 41 63 64
f 80 41 64
f 40 41 80
f 63 41 42
f 63 42 65
f 65 42 10
f 43 66 13
f 66 43 44
f 66 44 67
f 67 44 45
f 67 45 68
f 68 45 46
f 68 46 69
f 69 46 20
f 47 71 23
f 71 47 48
f 71 48 72
f 72 48 49
f 72 49 73
f 73 49 50
f 73 50 74
f 74 50 51
f 74 51 75
f 75 51 52
f 75 52 76
f 76 52 53
f 76 53 77
f 77 53 54
f 77 54 78
f 78 54 55
f 78 55 79
f 79 55 39
f 83 82 81
f 84 81 82
f 85 83 81
f 85 81 84
f 58 86 57
f 86 59 57
f 89 88 87
f 91 90 87
f 91 87 88
f 93 92 90
f 93 90 91
f 95 94 92
f 95 92 93
f 97 96 94
f 97 94 95
f 99 98 96
f 99 96 97
f 101 100 98
f 101 98 99
f 62 61 100
f 101 62 100
f 102 62 101
f 104 103 64
f 62 104 64
f 102 104 62
f 106 105 103
f 106 103 104
f 107 105 106
f 70 86 58
f 86 70 59
f 108 89 87
f 108 87 90
f 108 90 109
f 109 90 92
f 109 92 110
f 110 92 94
f 110 94 111
f 111 94 96
f 111 96 112
f 112 96 98
f 112 98 113
f 113 98 100
f 113 100 114
f 114 100 61
f 80 114 61
f 115 114 80
f 80 64 103
f 116 80 103
f 115 80 116
f 116 103 105
f 116 105 117
f 117 105 107
f 83 118 82
f 84 82 118
f 121 120 119
f 123 122 121
f 123 121 119
f 124 122 123
f 85 118 83
f 121 125 120
f 84 118 85
f 125 121 122
f 125 122 126
f 126 122 124
f 89 127 88
f 128 91 88
f 128 88 127
f 129 93 91
f 129 91 128
f 130 95 93
f 130 93 129
f 131 97 95
f 131 95 130
f 132 99 97
f 132 97 131
f 133 101 99
f 133 99 132
f 134 102 101
f 134 101 133
f 135 104 102
f 135 102 134
f 136 106 104
f 136 104 135
f 136 107 106
f 108 127 89
f 127 108 109
f 127 109 128
f 128 109 110
f 128 110 129
f 129 110 111
f 129 111 130
f 130 111 112
f 130 112 131
f 131 112 113
f 131 113 132
f 132 113 114
f 132 114 133
f 133 114 115
f 133 115 134
f 134 115 116
f 134 116 135
f 135 116 117
f 135 117 136
f 136 117 107
f 120 137 119
f 119 137 138
f 139 119 138
f 123 119 139
f 141 140 124
f 123 141 124
f 139 141 123
f 142 140 141
f 125 137 120
f 143 138 137
f 125 143 137
f 126 143 125
f 126 124 140
f 144 126 140
f 143 126 144
f 144 140 142
f 146 145 139
f 146 139 138
f 139 147 141
f 145 147 139
f 149 148 142
f 141 149 142
f 147 149 141
f 151 150 148
f 151 148 149
f 152 150 151
f 153 146 138
f 153 138 143
f 154 143 144
f 154 153 143
f 144 142 148
f 155 144 148
f 154 144 155
f 155 148 150
f 155 150 156
f 156 150 152
f 159 158 157
f 161 160 157
f 161 157 158
f 163 162 160
f 163 160 161
f 165 164 162
f 165 162 163
f 167 166 164
f 167 164 165
f 169 168 166
f 169 166 167
f 145 146 168
f 169 145 168
f 170 145 169
f 145 171 147
f 170 171 145
f 147 172 149
f 171 172 147
f 149 173 151
f 172 173 149
f 152 151 173
f 152 173 174
f 175 159 157
f 175 157 160
f 175 160 176
f 176 160 162
f 176 162 177
f 177 162 164
f 177 164 178
f 178 164 166
f 178 166 179
f 179 166 168
f 179 168 180
f 180 168 146
f 153 180 146
f 181 180 153
f 182 153 154
f 182 181 153
f 183 154 155
f 183 182 154
f 184 155 156
f 184 183 155
f 156 152 174
f 156 174 184
f 187 186 185
f 189 188 185
f 189 185 186
f 190 188 189
f 191 187 185
f 191 185 188
f 191 188 192
f 192 188 190
f 195 194 193
f 197 196 193
f 197 193 194
f 198 196 197
f 201 200 199
f 199 200 195
f 193 199 195
f 202 199 193
f 203 193 196
f 202 193 203
f 196 198 204
f 196 204 203
f 201 199 205
f 201 205 206
f 207 199 202
f 205 199 207
f 208 202 203
f 207 202 208
f 203 204 209
f 203 209 208
f 206 205 210
f 206 210 211
f 212 205 207
f 210 205 212
f 213 207 208
f 212 207 213
f 208 209 214
f 208 214 213
f 211 210 215
f 211 215 216
f 217 210 212
f 215 210 217
f 218 212 213
f 217 212 218
f 213 214 219
f 213 219 218
f 216 215 220
f 216 220 221
f 222 215 217
f 220 215 222
f 218 224 223
f 222 218 223
f 217 218 222
f 224 218 219
f 227 226 225
f 225 226 221
f 220 225 221
f 228 225 220
f 229 220 222
f 228 220 229
f 222 223 230
f 222 230 229
f 227 225 231
f 227 231 232
f 233 225 228
f 231 225 233
f 229 235 234
f 233 229 234
f 228 229 233
f 235 229 230
f 232 231 236
f 232 236 237
f 238 231 233
f 236 231 238
f 233 234 239
f 233 239 238
f 240 237 236
f 242 241 240
f 236 242 240
f 238 242 236
f 238 239 243
f 238 243 242
f 241 242 244
f 241 244 245
f 242 243 246
f 242 246 244
f 247 245 244
f 247 244 246
f 250 249 248
f 252 251 248
f 252 248 249
f 254 253 251
f 254 251 252
f 256 255 253
f 256 253 254
f 258 257 255
f 258 255 256
f 158 159 257
f 258 158 257
f 259 158 258
f 158 260 161
f 259 260 158
f 161 261 163
f 260 261 161
f 261 263 262
f 165 261 262
f 163 261 165
f 264 167 165
f 264 165 262
f 265 169 167
f 265 167 264
f 266 170 169
f 266 169 265
f 267 171 170
f 267 170 266
f 268 172 171
f 268 171 267
f 269 173 172
f 269 172 268
f 269 174 173
f 272 271 270
f 273 270 271
f 274 250 248
f 274 248 251
f 274 251 275
f 275 251 253
f 275 253 276
f 276 253 255
f 276 255 277
f 277 255 257
f 277 257 278
f 278 257 159
f 175 278 159
f 279 278 175
f 280 175 176
f 280 279 175
f 281 176 177
f 281 280 176
f 178 262 263
f 281 178 263
f 177 178 281
f 262 178 179
f 262 179 264
f 264 179 180
f 264 180 265
f 265 180 181
f 265 181 266
f 266 181 182
f 266 182 267
f 267 182 183
f 267 183 268
f 268 183 184
f 268 184 269
f 269 184 174
f 283 282 186
f 283 186 187
f 282 285 284
f 189 282 284
f 186 282 189
f 284 190 189
f 286 272 270
f 286 270 273
f 287 283 187
f 287 187 191
f 192 284 285
f 287 192 285
f 191 192 287
f 284 192 190
f 290 289 288
f 292 291 288
f 292 288 289
f 293 291 292
f 294 290 288
f 294 288 291
f 294 291 295
f 298 297 296
f 293 295 291
f 299 297 298
f 300 296 297
f 300 297 299
f 303 302 301
f 304 301 302
f 303 301 305
f 303 305 306
f 301 304 307
f 301 307 305
f 306 305 308
f 306 308 309
f 305 307 310
f 305 310 308
f 313 312 311
f 314 311 312
f 195 315 194
f 316 197 194
f 316 194 315
f 318 316 317
f 318 197 316
f 318 319 198
f 197 318 198
f 319 318 309
f 308 319 309
f 320 319 308
f 308 310 321
f 308 321 320
f 313 311 322
f 313 322 323
f 311 314 324
f 311 324 322
f 201 325 200
f 315 195 200
f 325 315 200
f 326 315 325
f 315 327 316
f 315 326 327
f 328 198 319
f 198 328 204
f 317 316 329
f 327 329 316
f 330 319 320
f 328 319 330
f 320 321 331
f 320 331 330
f 332 323 322
f 332 322 324
f 206 333 325
f 206 325 201
f 325 334 326
f 325 333 334
f 326 335 327
f 326 334 335
f 336 204 328
f 204 336 209
f 329 327 337
f 335 337 327
f 338 328 330
f 336 328 338
f 330 331 339
f 330 339 338
f 211 340 333
f 211 333 206
f 333 341 334
f 333 340 341
f 334 342 335
f 334 341 342
f 343 209 336
f 209 343 214
f 337 335 344
f 342 344 335
f 338 346 345
f 343 338 345
f 336 338 343
f 346 338 339
f 216 347 340
f 216 340 211
f 340 348 341
f 340 347 348
f 341 349 342
f 341 348 349
f 352 351 350
f 352 350 344
f 352 344 342
f 352 342 349
f 352 349 219
f 352 219 214
f 352 214 343
f 352 343 351
f 343 345 353
f 343 353 351
f 221 354 347
f 221 347 216
f 347 355 348
f 347 354 355
f 355 223 224
f 349 355 224
f 348 355 349
f 224 219 349
f 357 350 356
f 351 356 350
f 351 353 358
f 351 358 356
f 227 359 226
f 354 221 226
f 359 354 226
f 360 354 359
f 354 361 355
f 354 360 361
f 361 230 223
f 361 223 355
f 357 356 362
f 357 362 363
f 356 358 364
f 356 364 362
f 232 365 359
f 232 359 227
f 359 366 360
f 359 365 366
f 366 234 235
f 361 366 235
f 360 366 361
f 361 235 230
f 363 362 367
f 363 367 368
f 362 364 369
f 362 369 367
f 237 370 365
f 237 365 232
f 365 371 366
f 365 370 371
f 371 239 234
f 371 234 366
f 368 367 372
f 368 372 373
f 367 369 374
f 367 374 372
f 240 370 237
f 370 240 241
f 375 370 241
f 371 370 375
f 375 243 239
f 375 239 371
f 373 372 376
f 373 376 377
f 372 374 378
f 372 378 376
f 245 379 375
f 245 375 241
f 379 246 243
f 379 243 375
f 380 377 376
f 380 376 378
f 247 379 245
f 379 247 246
f 383 382 381
f 384 381 382
f 385 383 381
f 385 381 384
f 388 387 386
f 390 389 386
f 390 386 387
f 391 389 390
f 392 388 386
f 394 393 392
f 386 394 392
f 389 394 386
f 389 391 395
f 389 395 394
f 393 394 396
f 393 396 397
f 394 395 398
f 399 394 398
f 396 394 399
f 401 400 399
f 401 399 398
f 402 400 401
f 403 397 396
f 405 404 403
f 396 405 403
f 399 405 396
f 406 399 400
f 405 399 406
f 400 402 407
f 400 407 406
f 408 404 405
f 408 405 406
f 408 406 409
f 412 411 410
f 407 409 406
f 413 411 412
f 414 410 411
f 414 411 413
f 417 416 415
f 249 250 415
f 416 249 415
f 418 249 416
f 249 419 252
f 418 419 249
f 252 420 254
f 419 420 252
f 254 421 256
f 420 421 254
f 256 422 258
f 421 422 256
f 422 424 423
f 259 422 423
f 258 422 259
f 425 260 259
f 425 259 423
f 426 261 260
f 426 260 425
f 426 263 261
f 428 427 271
f 428 271 272
f 273 271 427
f 273 427 429
f 430 417 415
f 430 415 250
f 274 430 250
f 431 430 274
f 432 274 275
f 432 431 274
f 433 275 276
f 433 432 275
f 434 276 277
f 434 433 276
f 435 277 278
f 435 434 277
f 279 423 424
f 435 279 424
f 278 279 435
f 423 279 280
f 423 280 425
f 425 280 281
f 425 281 426
f 426 281 263
f 283 436 282
f 436 285 282
f 437 428 272
f 437 272 286
f 286 273 429
f 286 429 437
f 287 436 283
f 436 287 285
f 290 438 289
f 439 292 289
f 439 289 438
f 439 293 292
f 294 438 290
f 438 294 295
f 438 295 439
f 293 439 295
f 298 296 440
f 440 299 298
f 300 440 296
f 440 300 299
f 303 441 302
f 441 304 302
f 306 442 441
f 306 441 303
f 304 443 307
f 443 304 444
f 441 444 304
f 444 441 445
f 442 445 441
f 446 443 444
f 309 447 442
f 309 442 306
f 448 307 443
f 307 448 310
f 445 442 449
f 447 449 442
f 443 446 450
f 443 450 448
f 313 451 312
f 451 314 312
f 317 452 318
f 452 453 318
f 318 453 309
f 453 454 309
f 454 447 309
f 454 449 447
f 321 310 455
f 448 455 310
f 448 450 456
f 448 456 455
f 323 457 451
f 323 451 313
f 457 324 314
f 457 314 451
f 329 458 452
f 329 452 317
f 453 452 459
f 459 452 458
f 460 331 455
f 455 331 321
f 455 456 461
f 455 461 460
f 332 457 323
f 457 332 324
f 337 462 458
f 337 458 329
f 459 458 463
f 458 464 463
f 458 462 464
f 331 464 339
f 464 331 463
f 460 463 331
f 463 460 465
f 466 465 460
f 460 461 467
f 460 467 466
f 344 468 462
f 344 462 337
f 468 345 346
f 464 468 346
f 462 468 464
f 346 339 464
f 470 465 469
f 466 469 465
f 466 467 471
f 466 471 469
f 350 472 468
f 350 468 344
f 472 353 345
f 472 345 468
f 470 469 473
f 470 473 474
f 469 471 475
f 469 475 473
f 357 476 472
f 357 472 350
f 476 358 353
f 476 353 472
f 477 474 473
f 477 473 475
f 363 478 476
f 363 476 357
f 478 364 358
f 478 358 476
f 368 479 478
f 368 478 363
f 479 369 364
f 479 364 478
f 373 480 479
f 373 479 368
f 480 374 369
f 480 369 479
f 377 481 480
f 377 480 373
f 481 378 374
f 481 374 480
f 380 481 377
f 481 380 378
f 383 482 382
f 482 384 382
f 385 482 383
f 482 385 384
f 485 484 483
f 486 483 484
f 489 488 487
f 487 488 485
f 483 487 485
f 490 487 483
f 483 486 491
f 483 491 490
f 494 493 492
f 492 493 489
f 487 492 489
f 495 492 487
f 490 497 496
f 495 490 496
f 487 490 495
f 497 490 491
f 494 492 498
f 494 498 499
f 500 492 495
f 498 492 500
f 495 496 501
f 495 501 500
f 499 498 502
f 499 502 503
f 504 498 500
f 502 498 504
f 500 501 505
f 506 500 505
f 504 500 506
f 507 506 505
f 508 503 502
f 510 509 508
f 502 510 508
f 504 510 502
f 511 504 506
f 510 504 511
f 506 507 512
f 506 512 511
f 509 510 513
f 509 513 514
f 515 510 511
f 513 510 515
f 511 512 516
f 511 516 515
f 517 514 513
f 519 518 517
f 513 519 517
f 515 519 513
f 515 516 520
f 521 515 520
f 519 515 521
f 522 521 520
f 388 523 387
f 524 390 387
f 524 387 523
f 524 391 390
f 525 518 519
f 527 526 525
f 519 527 525
f 521 527 519
f 521 522 528
f 521 528 527
f 392 523 388
f 523 392 393
f 529 523 393
f 524 523 529
f 529 395 391
f 529 391 524
f 526 527 530
f 526 530 531
f 527 528 532
f 527 532 530
f 397 533 529
f 397 529 393
f 534 398 395
f 529 534 395
f 533 534 529
f 535 401 398
f 535 398 534
f 535 402 401
f 530 536 531
f 536 530 537
f 530 532 538
f 530 538 537
f 403 533 397
f 533 403 404
f 539 533 404
f 534 533 539
f 534 540 535
f 534 539 540
f 541 536 537
f 407 402 540
f 535 540 402
f 544 543 542
f 538 541 537
f 545 543 544
f 408 539 404
f 539 408 409
f 539 409 540
f 407 540 409
f 412 410 546
f 543 547 542
f 413 412 546
f 547 543 545
f 414 546 410
f 546 414 413
f 417 548 416
f 416 548 549
f 550 416 549
f 418 416 550
f 418 551 419
f 550 551 418
f 419 552 420
f 551 552 419
f 420 553 421
f 552 553 420
f 421 554 422
f 553 554 421
f 556 555 424
f 422 556 424
f 554 556 422
f 558 557 555
f 558 555 556
f 559 557 558
f 561 560 427
f 561 427 428
f 429 427 560
f 429 560 562
f 430 548 417
f 563 549 548
f 430 563 548
f 431 563 430
f 564 431 432
f 564 563 431
f 565 432 433
f 565 564 432
f 566 433 434
f 566 565 433
f 567 434 435
f 567 566 434
f 435 424 555
f 568 435 555
f 567 435 568
f 568 555 557
f 568 557 569
f 569 557 559
f 572 571 570
f 574 573 570
f 574 570 571
f 576 575 573
f 576 573 574
f 578 577 575
f 578 575 576
f 579 577 578
f 580 561 428
f 580 428 437
f 437 429 562
f 437 562 580
f 581 572 570
f 581 570 573
f 581 573 582
f 582 573 575
f 582 575 583
f 583 575 577
f 583 577 584
f 584 577 579
f 587 586 585
f 588 585 586
f 589 587 585
f 589 585 588
f 445 590 444
f 590 446 444
f 449 591 590
f 449 590 445
f 591 450 446
f 591 446 590
f 453 592 454
f 591 449 454
f 592 591 454
f 593 591 592
f 593 456 450
f 593 450 591
f 459 594 592
f 459 592 453
f 592 595 593
f 592 594 595
f 595 461 456
f 595 456 593
f 463 594 459
f 594 463 465
f 596 594 465
f 595 594 596
f 596 467 461
f 596 461 595
f 470 597 596
f 470 596 465
f 597 471 467
f 597 467 596
f 474 598 597
f 474 597 470
f 598 475 471
f 598 471 597
f 477 598 474
f 598 477 475
f 485 599 484
f 599 486 484
f 489 600 488
f 599 485 488
f 600 599 488
f 601 599 600
f 601 491 486
f 601 486 599
f 494 602 493
f 600 489 493
f 602 600 493
f 603 600 602
f 603 496 497
f 601 603 497
f 600 603 601
f 601 497 491
f 499 604 602
f 499 602 494
f 602 605 603
f 602 604 605
f 605 501 496
f 605 496 603
f 503 606 604
f 503 604 499
f 604 607 605
f 604 606 607
f 608 505 501
f 605 608 501
f 607 608 605
f 608 507 505
f 508 606 503
f 606 508 509
f 609 606 509
f 607 606 609
f 607 610 608
f 607 609 610
f 610 512 507
f 610 507 608
f 514 611 609
f 514 609 509
f 609 612 610
f 609 611 612
f 612 516 512
f 612 512 610
f 517 611 514
f 611 517 518
f 613 611 518
f 612 611 613
f 614 520 516
f 612 614 516
f 613 614 612
f 614 522 520
f 525 613 518
f 613 525 526
f 615 613 526
f 614 613 615
f 615 528 522
f 615 522 614
f 531 616 615
f 531 615 526
f 616 532 528
f 616 528 615
f 536 617 616
f 536 616 531
f 617 538 532
f 617 532 616
f 541 617 536
f 538 617 541
f 544 542 618
f 618 545 544
f 547 618 542
f 618 547 545
f 549 619 550
f 550 619 620
f 621 550 620
f 551 550 621
f 551 622 552
f 621 622 551
f 552 623 553
f 622 623 552
f 553 624 554
f 623 624 553
f 554 625 556
f 624 625 554
f 556 626 558
f 625 626 556
f 559 558 626
f 559 626 627
f 630 629 628
f 560 561 628
f 629 560 628
f 631 560 629
f 562 560 631
f 562 631 632
f 563 619 549
f 633 620 619
f 563 633 619
f 564 633 563
f 634 564 565
f 634 633 564
f 635 565 566
f 635 634 565
f 636 566 567
f 636 635 566
f 637 567 568
f 637 636 567
f 638 568 569
f 638 637 568
f 569 559 627
f 569 627 638
f 572 639 571
f 640 574 571
f 640 571 639
f 641 576 574
f 641 574 640
f 642 578 576
f 642 576 641
f 642 579 578
f 643 630 628
f 643 628 561
f 580 643 561
f 644 643 580
f 580 562 632
f 580 632 644
f 581 639 572
f 639 581 582
f 639 582 640
f 640 582 583
f 640 583 641
f 641 583 584
f 641 584 642
f 642 584 579
f 587 645 586
f 645 588 586
f 589 645 587
f 645 589 588
f 620 646 621
f 647 622 621
f 647 621 646
f 648 623 622
f 648 622 647
f 623 648 649
f 650 623 649
f 624 623 650
f 624 651 625
f 650 651 624
f 625 652 626
f 651 652 625
f 627 626 652
f 627 652 653
f 655 654 629
f 655 629 630
f 654 657 656
f 631 654 656
f 629 654 631
f 656 632 631
f 633 646 620
f 646 633 634
f 646 634 647
f 647 634 635
f 647 635 648
f 658 649 648
f 635 658 648
f 636 658 635
f 659 636 637
f 659 658 636
f 660 637 638
f 660 659 637
f 638 627 653
f 638 653 660
f 661 655 630
f 661 630 643
f 644 656 657
f 661 644 657
f 643 644 661
f 656 644 632
f 664 663 662
f 665 662 663
f 664 662 666
f 664 666 667
f 662 665 668
f 662 668 666
f 667 666 669
f 667 669 670
f 666 668 671
f 666 671 669
f 672 670 669
f 672 669 671
f 675 674 673
f 650 649 673
f 674 650 673
f 676 650 674
f 650 677 651
f 676 677 650
f 677 679 678
f 652 677 678
f 651 677 652
f 678 653 652
f 682 681 680
f 683 680 681
f 686 685 684
f 688 687 684
f 688 684 685
f 688 655 687
f 688 654 655
f 688 690 689
f 654 688 689
f 689 657 654
f 691 675 673
f 691 673 649
f 658 691 649
f 692 691 658
f 693 658 659
f 693 692 658
f 660 678 679
f 693 660 679
f 659 660 693
f 678 660 653
f 694 682 680
f 694 680 683
f 695 686 684
f 695 684 687
f 695 687 696
f 696 689 690
f 696 661 689
f 696 687 655
f 661 696 655
f 689 661 657
f 664 697 663
f 697 665 663
f 667 698 697
f 667 697 664
f 698 668 665
f 698 665 697
f 670 699 698
f 670 698 667
f 699 671 668
f 699 668 698
f 672 699 670
f 699 672 671
f 675 700 674
f 701 676 674
f 701 674 700
f 702 677 676
f 702 676 701
f 702 679 677
f 704 703 681
f 704 681 682
f 706 705 683
f 681 706 683
f 703 706 681
f 708 707 705
f 708 705 706
f 710 709 707
f 710 707 708
f 712 711 709
f 712 709 710
f 714 713 711
f 714 711 712
f 716 715 713
f 716 713 714
f 718 717 715
f 718 715 716
f 685 686 717
f 718 685 717
f 719 685 718
f 719 721 720
f 688 719 720
f 685 719 688
f 720 690 688
f 691 700 675
f 700 691 692
f 700 692 701
f 701 692 693
f 701 693 702
f 702 693 679
f 722 704 682
f 722 682 694
f 694 683 705
f 723 694 705
f 722 694 723
f 723 705 707
f 723 707 724
f 724 707 709
f 724 709 725
f 725 709 711
f 725 711 726
f 726 711 713
f 726 713 727
f 727 713 715
f 727 715 728
f 728 715 717
f 728 717 729
f 729 717 686
f 695 729 686
f 730 729 695
f 696 720 721
f 730 696 721
f 695 696 730
f 720 696 690
f 733 732 731
f 732 704 731
f 732 703 704
f 732 735 734
f 703 732 734
f 736 706 703
f 736 703 734
f 737 708 706
f 737 706 736
f 708 737 738
f 739 708 738
f 710 708 739
f 710 740 712
f 739 740 710
f 712 741 714
f 740 741 712
f 714 742 716
f 741 742 714
f 742 744 743
f 718 742 743
f 716 742 718
f 745 719 718
f 745 718 743
f 745 721 719
f 746 733 731
f 746 734 735
f 746 722 734
f 746 731 704
f 722 746 704
f 734 722 723
f 734 723 736
f 736 723 724
f 736 724 737
f 747 738 737
f 724 747 737
f 725 747 724
f 748 725 726
f 748 747 725
f 749 726 727
f 749 748 726
f 750 727 728
f 750 749 727
f 729 743 744
f 750 729 744
f 728 729 750
f 743 729 730
f 743 730 745
f 745 730 721
f 752 751 732
f 752 732 733
f 735 732 751
f 735 751 753
f 738 754 739
f 755 740 739
f 755 739 754
f 756 741 740
f 756 740 755
f 757 742 741
f 757 741 756
f 757 744 742
f 758 752 733
f 758 733 746
f 746 735 753
f 746 753 758
f 747 754 738
f 754 747 748
f 754 748 755
f 755 748 749
f 755 749 756
f 756 749 750
f 756 750 757
f 757 750 744
f 752 759 751
f 759 753 751
f 758 759 752
f 759 758 753
f 762 761 760
f 763 760 761
f 764 762 760
f 764 760 763
f 766 765 761
f 766 761 762
f 763 761 765
f 763 765 767
f 768 766 762
f 768 762 764
f 764 763 767
f 764 767 768
f 766 769 765
f 769 767 765
f 768 769 766
f 769 768 767
f 772 771 770
f 773 770 771
f 774 772 770
f 774 770 773
f 772 775 771
f 775 773 771
f 774 775 772
f 775 774 773
f 778 777 776
f 779 776 777
f 780 778 776
f 780 776 779
f 778 781 777
f 781 779 777
f 780 781 778
f 781 780 779
f 784 783 782
f 785 782 783
f 784 782 786
f 784 786 787
f 782 785 788
f 782 788 786
f 787 786 789
f 787 789 790
f 786 788 791
f 786 791 789
f 790 789 792
f 790 792 793
f 789 791 794
f 789 794 792
f 793 792 795
f 793 795 796
f 792 794 797
f 792 797 795
f 796 795 798
f 796 798 799
f 795 797 800
f 795 800 798
f 799 798 801
f 799 801 802
f 798 800 803
f 798 803 801
f 802 801 804
f 802 804 805
f 801 803 806
f 801 806 804
f 805 804 807
f 805 807 808
f 804 806 809
f 804 809 807
f 808 807 810
f 808 810 811
f 807 809 812
f 807 812 810
f 813 811 810
f 813 810 812
f 816 815 814
f 817 814 815
f 816 814 783
f 784 816 783
f 818 816 784
f 785 783 814
f 817 785 814
f 819 785 817
f 787 818 784
f 787 820 818
f 819 788 785
f 821 788 819
f 790 823 822
f 820 790 822
f 787 790 820
f 821 822 823
f 791 821 823
f 788 821 791
f 793 824 823
f 793 823 790
f 824 794 791
f 824 791 823
f 826 825 824
f 793 826 824
f 796 826 793
f 794 824 825
f 827 794 825
f 797 794 827
f 799 826 796
f 799 828 826
f 827 800 797
f 829 800 827
f 802 828 799
f 802 830 828
f 829 803 800
f 831 803 829
f 805 830 802
f 805 832 830
f 831 806 803
f 833 806 831
f 808 832 805
f 808 834 832
f 833 809 806
f 835 809 833
f 811 834 808
f 811 836 834
f 835 812 809
f 837 812 835
f 811 813 838
f 839 811 838
f 836 811 839
f 840 838 813
f 812 840 813
f 837 840 812
f 839 838 841
f 839 841 842
f 838 840 843
f 838 843 841
f 844 842 841
f 844 841 843
f 847 846 845
f 848 845 846
f 849 847 845
f 849 845 848
f 816 850 815
f 850 817 815
f 818 851 850
f 818 850 816
f 851 819 817
f 851 817 850
f 820 852 851
f 820 851 818
f 852 821 819
f 852 819 851
f 822 852 820
f 821 852 822
f 855 854 853
f 856 854 855
f 853 854 857
f 853 857 858
f 854 856 859
f 854 859 857
f 826 860 825
f 858 860 861
f 860 858 825
f 857 825 858
f 825 857 827
f 862 827 857
f 857 859 863
f 857 863 862
f 828 864 860
f 828 860 826
f 865 827 862
f 827 865 829
f 861 860 866
f 864 866 860
f 862 863 867
f 862 867 865
f 830 868 864
f 830 864 828
f 869 829 865
f 829 869 831
f 866 864 870
f 868 870 864
f 865 867 871
f 865 871 869
f 832 872 868
f 832 868 830
f 873 831 869
f 831 873 833
f 870 868 874
f 872 874 868
f 869 871 875
f 869 875 873
f 834 876 872
f 834 872 832
f 877 833 873
f 833 877 835
f 874 872 878
f 876 878 872
f 873 875 879
f 873 879 877
f 836 880 876
f 836 876 834
f 883 882 881
f 883 881 878
f 883 878 876
f 883 876 880
f 883 880 837
f 883 837 835
f 883 835 877
f 883 877 882
f 877 879 884
f 877 884 882
f 839 885 880
f 839 880 836
f 886 881 882
f 840 837 885
f 880 885 837
f 886 882 884
f 842 887 885
f 842 885 839
f 887 843 840
f 887 840 885
f 844 887 842
f 887 844 843
f 890 889 888
f 891 888 889
f 892 890 888
f 892 888 891
f 895 894 893
f 896 893 894
f 895 893 897
f 895 897 898
f 893 896 899
f 893 899 897
f 898 897 900
f 898 900 901
f 897 899 902
f 897 902 900
f 901 900 903
f 901 903 904
f 900 902 905
f 900 905 903
f 908 907 906
f 909 906 907
f 904 903 910
f 904 910 911
f 903 905 912
f 903 912 910
f 908 906 913
f 908 913 914
f 906 909 915
f 916 906 915
f 913 906 916
f 916 915 911
f 910 916 911
f 917 916 910
f 910 912 918
f 910 918 917
f 914 913 919
f 914 919 920
f 916 922 921
f 919 916 921
f 913 916 919
f 922 916 917
f 922 917 923
f 923 917 918
f 926 925 924
f 920 919 927
f 925 928 924
f 927 919 921
f 929 926 924
f 929 924 928
f 932 931 930
f 934 933 930
f 934 930 931
f 936 935 933
f 936 933 934
f 937 846 847
f 938 935 936
f 937 848 846
f 939 932 930
f 939 930 933
f 939 933 940
f 940 933 935
f 940 935 941
f 847 849 937
f 935 938 941
f 937 849 848
f 853 942 855
f 942 856 855
f 858 943 942
f 858 942 853
f 943 859 856
f 943 856 942
f 861 944 943
f 861 943 858
f 944 863 859
f 944 859 943
f 866 945 944
f 866 944 861
f 945 867 863
f 945 863 944
f 870 946 945
f 870 945 866
f 946 871 867
f 946 867 945
f 948 947 946
f 870 948 946
f 874 948 870
f 871 946 947
f 949 871 947
f 875 871 949
f 878 948 874
f 878 950 948
f 949 879 875
f 951 879 949
f 881 950 878
f 881 952 950
f 951 884 879
f 953 884 951
f 881 886 954
f 955 881 954
f 952 881 955
f 956 954 886
f 884 956 886
f 953 956 884
f 955 954 957
f 955 957 958
f 954 956 959
f 954 959 957
f 960 958 957
f 960 957 959
f 963 962 961
f 964 961 962
f 963 961 965
f 963 965 966
f 961 964 967
f 961 967 965
f 968 966 965
f 968 965 967
f 971 970 969
f 972 969 970
f 975 974 973
f 973 974 971
f 969 973 971
f 976 973 969
f 969 972 977
f 969 977 976
f 890 978 889
f 978 891 889
f 975 973 979
f 975 979 980
f 976 982 981
f 979 976 981
f 973 976 979
f 982 976 977
f 892 978 890
f 978 892 891
f 983 980 979
f 983 979 981
f 895 984 894
f 984 896 894
f 898 985 984
f 898 984 895
f 985 899 896
f 985 896 984
f 901 986 985
f 901 985 898
f 986 902 899
f 986 899 985
f 904 987 986
f 904 986 901
f 987 905 902
f 987 902 986
f 908 988 907
f 988 909 907
f 911 989 987
f 911 987 904
f 989 912 905
f 989 905 987
f 914 990 988
f 914 988 908
f 991 915 909
f 988 991 909
f 990 991 988
f 989 911 915
f 991 989 915
f 992 989 991
f 992 918 912
f 992 912 989
f 920 993 990
f 920 990 914
f 993 921 922
f 991 993 922
f 990 993 991
f 991 922 923
f 991 923 992
f 992 923 918
f 926 994 925
f 927 993 920
f 928 925 994
f 993 927 921
f 929 994 926
f 994 929 928
f 997 996 995
f 931 932 995
f 996 931 995
f 998 931 996
f 931 999 934
f 998 999 931
f 999 1001 1000
f 936 999 1000
f 934 999 936
f 1000 938 936
f 1002 997 995
f 1002 995 932
f 939 1002 932
f 1003 1002 939
f 1004 939 940
f 1004 1003 939
f 941 1000 1001
f 1004 941 1001
f 940 941 1004
f 1000 941 938
f 1007 1006 1005
f 1008 1005 1006
f 1011 1010 1009
f 1007 1005 1012
f 1010 1013 1009
f 1012 1005 1008
f 1016 1015 1014
f 1011 1009 1017
f 1015 1018 1014
f 1017 1009 1013
f 1019 1016 1014
f 1019 1014 1018
f 1022 1021 1020
f 1023 1020 1021
f 1022 1020 1024
f 1022 1024 1025
f 1020 1023 1026
f 1020 1026 1024
f 1029 1028 1027
f 1030 1027 1028
f 1025 1024 1031
f 1025 1031 1032
f 1024 1026 1033
f 1024 1033 1031
f 1029 1027 1034
f 1029 1034 1035
f 1027 1030 1036
f 1027 1036 1034
f 1032 1031 1037
f 1032 1037 1038
f 1031 1033 1039
f 1031 1039 1037
f 1035 1034 1040
f 1035 1040 1041
f 1034 1036 1042
f 1034 1042 1040
f 1045 1044 1043
f 1038 1037 1046
f 1044 1047 1043
f 1046 1037 1039
f 1041 1040 1048
f 1041 1048 1049
f 1040 1042 1050
f 1040 1050 1048
f 1045 1043 1051
f 1045 1051 1052
f 1043 1047 1053
f 1043 1053 1051
f 1049 1048 1054
f 1049 1054 1055
f 1048 1050 1056
f 1048 1056 1054
f 948 1057 947
f 1057 949 947
f 1052 1051 1058
f 1052 1058 1059
f 1051 1053 1060
f 1051 1060 1058
f 1055 1054 1061
f 1055 1061 1062
f 1054 1056 1063
f 1054 1063 1061
f 950 1064 1057
f 950 1057 948
f 1067 1066 1065
f 1057 951 949
f 951 1057 1064
f 1067 1069 1068
f 1067 1058 1069
f 1067 1065 1059
f 1058 1067 1059
f 1069 1058 1060
f 1062 1061 1070
f 1062 1070 1071
f 1061 1063 1072
f 1061 1072 1070
f 952 1073 1064
f 952 1064 950
f 1066 1067 1074
f 1075 1066 1074
f 1073 1075 1074
f 1064 1073 1074
f 951 1064 1074
f 953 951 1074
f 1076 953 1074
f 1067 1076 1074
f 1067 1068 1077
f 1067 1077 1076
f 1080 1079 1078
f 1078 1082 1081
f 1078 1070 1082
f 1078 1079 1071
f 1070 1078 1071
f 1082 1070 1072
f 955 1083 1073
f 955 1073 952
f 1084 953 1076
f 953 1084 956
f 1075 1073 1085
f 1083 1085 1073
f 1076 1077 1086
f 1076 1086 1084
f 1080 1078 1087
f 1080 1087 1088
f 1078 1081 1089
f 1078 1089 1087
f 958 1090 1083
f 958 1083 955
f 956 1084 959
f 1091 959 1084
f 959 1091 1090
f 1085 1090 1091
f 1090 1085 1083
f 1091 1084 1086
f 1088 1087 1092
f 1088 1092 1093
f 1087 1089 1094
f 1087 1094 1092
f 960 1090 958
f 1090 960 959
f 1093 1092 1095
f 1093 1095 1096
f 1092 1094 1097
f 1092 1097 1095
f 1098 1096 1095
f 1098 1095 1097
f 1101 1100 1099
f 1103 1102 1099
f 1103 1099 1100
f 1104 1102 1103
f 1101 1099 1105
f 1101 1105 1106
f 1102 1108 1107
f 1105 1102 1107
f 1099 1102 1105
f 1108 1102 1104
f 1109 1106 1105
f 1109 1105 1107
f 963 1110 962
f 1110 964 962
f 966 1111 1110
f 966 1110 963
f 1111 967 964
f 1111 964 1110
f 968 1111 966
f 1111 968 967
f 971 1112 970
f 1112 972 970
f 975 1113 974
f 1112 971 974
f 1113 1112 974
f 1114 1112 1113
f 1114 977 972
f 1114 972 1112
f 980 1115 1113
f 980 1113 975
f 1115 981 982
f 1114 1115 982
f 1113 1115 1114
f 1114 982 977
f 983 1115 980
f 1115 983 981
f 1118 1117 1116
f 996 997 1116
f 1117 996 1116
f 1119 996 1117
f 996 1120 998
f 1119 1120 996
f 1120 1122 1121
f 999 1120 1121
f 998 1120 999
f 1121 1001 999
f 1123 1118 1116
f 1123 1116 997
f 1002 1123 997
f 1124 1123 1002
f 1125 1002 1003
f 1125 1124 1002
f 1004 1121 1122
f 1125 1004 1122
f 1003 1004 1125
f 1121 1004 1001
f 1007 1126 1006
f 1126 1008 1006
f 1011 1127 1010
f 1012 1126 1007
f 1013 1010 1127
f 1126 1012 1008
f 1016 1128 1015
f 1017 1127 1011
f 1018 1015 1128
f 1127 1017 1013
f 1019 1128 1016
f 1128 1019 1018
f 1131 1130 1129
f 1132 1129 1130
f 1022 1133 1021
f 1133 1023 1021
f 1136 1135 1134
f 1134 1135 1131
f 1129 1134 1131
f 1137 1134 1129
f 1129 1132 1138
f 1129 1138 1137
f 1025 1139 1133
f 1025 1133 1022
f 1139 1026 1023
f 1139 1023 1133
f 1136 1134 1140
f 1136 1140 1141
f 1142 1134 1137
f 1140 1134 1142
f 1137 1138 1143
f 1144 1137 1143
f 1142 1137 1144
f 1145 1144 1143
f 1029 1146 1028
f 1146 1030 1028
f 1032 1147 1139
f 1032 1139 1025
f 1147 1033 1026
f 1147 1026 1139
f 1141 1140 1148
f 1141 1148 1149
f 1150 1140 1142
f 1148 1140 1150
f 1151 1142 1144
f 1150 1142 1151
f 1144 1145 1152
f 1144 1152 1151
f 1035 1153 1146
f 1035 1146 1029
f 1153 1036 1030
f 1153 1030 1146
f 1038 1154 1147
f 1038 1147 1032
f 1154 1039 1033
f 1154 1033 1147
f 1157 1156 1155
f 1155 1156 1149
f 1148 1155 1149
f 1158 1155 1148
f 1159 1148 1150
f 1158 1148 1159
f 1160 1150 1151
f 1159 1150 1160
f 1151 1152 1161
f 1151 1161 1160
f 1041 1162 1153
f 1041 1153 1035
f 1162 1042 1036
f 1162 1036 1153
f 1045 1163 1044
f 1046 1154 1038
f 1047 1044 1163
f 1154 1046 1039
f 1157 1155 1164
f 1157 1164 1165
f 1166 1155 1158
f 1164 1155 1166
f 1167 1158 1159
f 1166 1158 1167
f 1168 1159 1160
f 1167 1159 1168
f 1160 1161 1169
f 1160 1169 1168
f 1049 1170 1162
f 1049 1162 1041
f 1170 1050 1042
f 1170 1042 1162
f 1052 1171 1163
f 1052 1163 1045
f 1171 1053 1047
f 1171 1047 1163
f 1165 1164 1172
f 1165 1172 1173
f 1174 1164 1166
f 1172 1164 1174
f 1175 1166 1167
f 1174 1166 1175
f 1176 1167 1168
f 1175 1167 1176
f 1168 1169 1177
f 1168 1177 1176
f 1055 1178 1170
f 1055 1170 1049
f 1178 1056 1050
f 1178 1050 1170
f 1059 1179 1171
f 1059 1171 1052
f 1179 1060 1053
f 1179 1053 1171
f 1182 1181 1180
f 1180 1181 1173
f 1172 1180 1173
f 1183 1180 1172
f 1184 1172 1174
f 1183 1172 1184
f 1185 1174 1175
f 1184 1174 1185
f 1186 1175 1176
f 1185 1175 1186
f 1176 1177 1187
f 1176 1187 1186
f 1062 1188 1178
f 1062 1178 1055
f 1188 1063 1056
f 1188 1056 1178
f 1066 1189 1065
f 1189 1059 1065
f 1189 1179 1059
f 1189 1068 1069
f 1179 1189 1069
f 1179 1069 1060
f 1192 1191 1190
f 1190 1191 1182
f 1180 1190 1182
f 1193 1190 1180
f 1194 1180 1183
f 1193 1180 1194
f 1195 1183 1184
f 1194 1183 1195
f 1196 1184 1185
f 1195 1184 1196
f 1186 1198 1197
f 1196 1186 1197
f 1185 1186 1196
f 1198 1186 1187
f 1071 1199 1188
f 1071 1188 1062
f 1199 1072 1063
f 1199 1063 1188
f 1075 1200 1189
f 1075 1189 1066
f 1200 1077 1068
f 1200 1068 1189
f 1203 1202 1201
f 1201 1202 1192
f 1190 1201 1192
f 1204 1201 1190
f 1205 1190 1193
f 1204 1190 1205
f 1206 1193 1194
f 1205 1193 1206
f 1207 1194 1195
f 1206 1194 1207
f 1208 1195 1196
f 1207 1195 1208
f 1196 1197 1209
f 1196 1209 1208
f 1080 1210 1079
f 1210 1071 1079
f 1210 1199 1071
f 1210 1081 1082
f 1199 1210 1082
f 1199 1082 1072
f 1085 1211 1200
f 1085 1200 1075
f 1211 1086 1077
f 1211 1077 1200
f 1203 1201 1212
f 1203 1212 1213
f 1214 1201 1204
f 1212 1201 1214
f 1205 1216 1215
f 1214 1205 1215
f 1204 1205 1214
f 1216 1205 1206
f 1216 1206 1217
f 1219 1218 1217
f 1206 1219 1217
f 1207 1219 1206
f 1220 1207 1208
f 1219 1207 1220
f 1208 1209 1221
f 1208 1221 1220
f 1088 1222 1210
f 1088 1210 1080
f 1222 1089 1081
f 1222 1081 1210
f 1091 1211 1085
f 1211 1091 1086
f 1213 1212 1223
f 1213 1223 1224
f 1214 1226 1225
f 1223 1214 1225
f 1212 1214 1223
f 1226 1214 1215
f 1218 1219 1227
f 1218 1227 1228
f 1229 1219 1220
f 1227 1219 1229
f 1220 1221 1230
f 1220 1230 1229
f 1093 1231 1222
f 1093 1222 1088
f 1231 1094 1089
f 1231 1089 1222
f 1232 1224 1223
f 1232 1223 1225
f 1233 1228 1227
f 1235 1234 1233
f 1227 1235 1233
f 1229 1235 1227
f 1229 1230 1236
f 1229 1236 1235
f 1096 1237 1231
f 1096 1231 1093
f 1237 1097 1094
f 1237 1094 1231
f 1234 1235 1238
f 1234 1238 1239
f 1235 1236 1240
f 1235 1240 1238
f 1098 1237 1096
f 1237 1098 1097
f 1241 1239 1238
f 1241 1238 1240
f 1244 1243 1242
f 1245 1242 1243
f 1246 1244 1242
f 1246 1242 1245
f 1101 1247 1100
f 1248 1103 1100
f 1248 1100 1247
f 1248 1104 1103
f 1106 1249 1247
f 1106 1247 1101
f 1249 1107 1108
f 1248 1249 1108
f 1247 1249 1248
f 1248 1108 1104
f 1109 1249 1106
f 1249 1109 1107
f 1118 1250 1117
f 1117 1250 1251
f 1252 1117 1251
f 1119 1117 1252
f 1252 1254 1253
f 1120 1252 1253
f 1119 1252 1120
f 1253 1122 1120
f 1123 1250 1118
f 1255 1251 1250
f 1123 1255 1250
f 1124 1255 1123
f 1125 1253 1254
f 1255 1125 1254
f 1124 1125 1255
f 1253 1125 1122
f 1131 1256 1130
f 1256 1132 1130
f 1136 1257 1135
f 1256 1131 1135
f 1257 1256 1135
f 1258 1256 1257
f 1258 1138 1132
f 1258 1132 1256
f 1141 1259 1257
f 1141 1257 1136
f 1257 1260 1258
f 1257 1259 1260
f 1261 1143 1138
f 1258 1261 1138
f 1260 1261 1258
f 1261 1145 1143
f 1149 1262 1259
f 1149 1259 1141
f 1259 1263 1260
f 1259 1262 1263
f 1260 1264 1261
f 1260 1263 1264
f 1264 1152 1145
f 1264 1145 1261
f 1157 1265 1156
f 1262 1149 1156
f 1265 1262 1156
f 1266 1262 1265
f 1262 1267 1263
f 1262 1266 1267
f 1263 1268 1264
f 1263 1267 1268
f 1268 1161 1152
f 1268 1152 1264
f 1165 1269 1265
f 1165 1265 1157
f 1265 1270 1266
f 1265 1269 1270
f 1266 1271 1267
f 1266 1270 1271
f 1267 1272 1268
f 1267 1271 1272
f 1272 1169 1161
f 1272 1161 1268
f 1173 1273 1269
f 1173 1269 1165
f 1269 1274 1270
f 1269 1273 1274
f 1270 1275 1271
f 1270 1274 1275
f 1271 1276 1272
f 1271 1275 1276
f 1276 1177 1169
f 1276 1169 1272
f 1182 1277 1181
f 1273 1173 1181
f 1277 1273 1181
f 1278 1273 1277
f 1273 1279 1274
f 1273 1278 1279
f 1274 1280 1275
f 1274 1279 1280
f 1275 1281 1276
f 1275 1280 1281
f 1281 1187 1177
f 1281 1177 1276
f 1192 1282 1191
f 1277 1182 1191
f 1282 1277 1191
f 1283 1277 1282
f 1277 1284 1278
f 1277 1283 1284
f 1278 1285 1279
f 1278 1284 1285
f 1279 1286 1280
f 1279 1285 1286
f 1286 1197 1198
f 1281 1286 1198
f 1280 1286 1281
f 1281 1198 1187
f 1203 1287 1202
f 1282 1192 1202
f 1287 1282 1202
f 1288 1282 1287
f 1282 1289 1283
f 1282 1288 1289
f 1283 1290 1284
f 1283 1289 1290
f 1284 1291 1285
f 1284 1290 1291
f 1285 1292 1286
f 1285 1291 1292
f 1292 1209 1197
f 1292 1197 1286
f 1213 1293 1287
f 1213 1287 1203
f 1287 1294 1288
f 1287 1293 1294
f 1294 1215 1216
f 1289 1294 1216
f 1288 1294 1289
f 1289 1216 1217
f 1289 1217 1290
f 1290 1217 1218
f 1295 1290 1218
f 1291 1290 1295
f 1291 1296 1292
f 1291 1295 1296
f 1296 1221 1209
f 1296 1209 1292
f 1224 1297 1293
f 1224 1293 1213
f 1297 1225 1226
f 1294 1297 1226
f 1293 1297 1294
f 1294 1226 1215
f 1228 1298 1295
f 1228 1295 1218
f 1295 1299 1296
f 1295 1298 1299
f 1299 1230 1221
f 1299 1221 1296
f 1232 1297 1224
f 1297 1232 1225
f 1233 1298 1228
f 1298 1233 1234
f 1300 1298 1234
f 1299 1298 1300
f 1300 1236 1230
f 1300 1230 1299
f 1239 1301 1300
f 1239 1300 1234
f 1301 1240 1236
f 1301 1236 1300
f 1241 1301 1239
f 1301 1241 1240
f 1244 1302 1243
f 1302 1245 1243
f 1246 1302 1244
f 1302 1246 1245
f 1251 1303 1252
f 1254 1252 1303
f 1306 1305 1304
f 1308 1307 1306
f 1308 1306 1304
f 1309 1307 1308
f 1255 1303 1251
f 1306 1310 1305
f 1254 1303 1255
f 1310 1306 1307
f 1310 1307 1311
f 1311 1307 1309
f 1305 1312 1304
f 1304 1312 1313
f 1314 1304 1313
f 1308 1304 1314
f 1316 1315 1309
f 1308 1316 1309
f 1314 1316 1308
f 1318 1317 1315
f 1318 1315 1316
f 1320 1319 1317
f 1320 1317 1318
f 1322 1321 1319
f 1322 1319 1320
f 1323 1321 1322
f 1326 1325 1324
f 1328 1327 1324
f 1328 1324 1325
f 1330 1329 1327
f 1330 1327 1328
f 1332 1331 1329
f 1332 1329 1330
f 1334 1333 1331
f 1334 1331 1332
f 1335 1333 1334
f 1338 1337 1336
f 1339 1336 1337
f 1310 1312 1305
f 1340 1313 1312
f 1310 1340 1312
f 1311 1340 1310
f 1311 1309 1315
f 1341 1311 1315
f 1340 1311 1341
f 1341 1315 1317
f 1341 1317 1342
f 1342 1317 1319
f 1342 1319 1343
f 1343 1319 1321
f 1343 1321 1344
f 1344 1321 1323
f 1345 1326 1324
f 1345 1324 1327
f 1345 1327 1346
f 1346 1327 1329
f 1346 1329 1347
f 1347 1329 1331
f 1347 1331 1348
f 1348 1331 1333
f 1348 1333 1349
f 1349 1333 1335
f 1338 1336 1350
f 1338 1350 1351
f 1336 1339 1352
f 1336 1352 1350
f 1355 1354 1353
f 1353 1354 1351
f 1350 1353 1351
f 1356 1353 1350
f 1350 1352 1357
f 1350 1357 1356
f 1355 1353 1358
f 1355 1358 1359
f 1360 1353 1356
f 1358 1353 1360
f 1356 1357 1361
f 1356 1361 1360
f 1362 1359 1358
f 1362 1358 1360
f 1362 1360 1363
f 1363 1360 1361
f 1313 1364 1314
f 1365 1316 1314
f 1365 1314 1364
f 1316 1365 1366
f 1367 1316 1366
f 1318 1316 1367
f 1318 1368 1320
f 1367 1368 1318
f 1320 1369 1322
f 1368 1369 1320
f 1371 1370 1323
f 1322 1371 1323
f 1369 1371 1322
f 1373 1372 1370
f 1373 1370 1371
f 1375 1374 1372
f 1375 1372 1373
f 1325 1326 1374
f 1375 1325 1374
f 1376 1325 1375
f 1325 1377 1328
f 1376 1377 1325
f 1328 1378 1330
f 1377 1378 1328
f 1330 1379 1332
f 1378 1379 1330
f 1332 1380 1334
f 1379 1380 1332
f 1382 1381 1335
f 1334 1382 1335
f 1380 1382 1334
f 1383 1381 1382
f 1338 1384 1337
f 1384 1339 1337
f 1340 1364 1313
f 1364 1340 1341
f 1364 1341 1365
f 1385 1366 1365
f 1341 1385 1365
f 1342 1385 1341
f 1386 1342 1343
f 1386 1385 1342
f 1387 1343 1344
f 1387 1386 1343
f 1344 1323 1370
f 1388 1344 1370
f 1387 1344 1388
f 1388 1370 1372
f 1388 1372 1389
f 1389 1372 1374
f 1389 1374 1390
f 1390 1374 1326
f 1345 1390 1326
f 1391 1390 1345
f 1392 1345 1346
f 1392 1391 1345
f 1393 1346 1347
f 1393 1392 1346
f 1394 1347 1348
f 1394 1393 1347
f 1395 1348 1349
f 1395 1394 1348
f 1349 1335 1381
f 1396 1349 1381
f 1395 1349 1396
f 1396 1381 1383
f 1351 1397 1384
f 1351 1384 1338
f 1397 1352 1339
f 1397 1339 1384
f 1400 1399 1398
f 1402 1401 1398
f 1402 1398 1399
f 1403 1401 1402
f 1355 1404 1354
f 1397 1351 1354
f 1404 1397 1354
f 1405 1397 1404
f 1405 1357 1352
f 1405 1352 1397
f 1408 1407 1406
f 1406 1407 1400
f 1398 1406 1400
f 1409 1406 1398
f 1410 1398 1401
f 1409 1398 1410
f 1401 1403 1411
f 1412 1401 1411
f 1410 1401 1412
f 1413 1412 1411
f 1359 1414 1404
f 1359 1404 1355
f 1404 1415 1405
f 1404 1414 1415
f 1415 1361 1357
f 1415 1357 1405
f 1408 1406 1416
f 1408 1416 1417
f 1418 1406 1409
f 1416 1406 1418
f 1419 1409 1410
f 1418 1409 1419
f 1420 1410 1412
f 1419 1410 1420
f 1412 1413 1421
f 1422 1412 1421
f 1420 1412 1422
f 1423 1422 1421
f 1362 1414 1359
f 1414 1362 1363
f 1414 1363 1415
f 1415 1363 1361
f 1424 1417 1416
f 1426 1425 1424
f 1416 1426 1424
f 1418 1426 1416
f 1427 1418 1419
f 1426 1418 1427
f 1428 1419 1420
f 1427 1419 1428
f 1422 1430 1429
f 1428 1422 1429
f 1420 1422 1428
f 1430 1422 1423
f 1431 1425 1426
f 1433 1432 1431
f 1426 1433 1431
f 1427 1433 1426
f 1434 1427 1428
f 1433 1427 1434
f 1428 1429 1435
f 1428 1435 1434
f 1436 1432 1433
f 1436 1433 1434
f 1436 1434 1437
f 1437 1434 1435
f 1366 1438 1367
f 1439 1368 1367
f 1439 1367 1438
f 1440 1369 1368
f 1440 1368 1439
f 1441 1371 1369
f 1441 1369 1440
f 1442 1373 1371
f 1442 1371 1441
f 1443 1375 1373
f 1443 1373 1442
f 1444 1376 1375
f 1444 1375 1443
f 1445 1377 1376
f 1445 1376 1444
f 1446 1378 1377
f 1446 1377 1445
f 1447 1379 1378
f 1447 1378 1446
f 1448 1380 1379
f 1448 1379 1447
f 1449 1382 1380
f 1449 1380 1448
f 1449 1383 1382
f 1452 1451 1450
f 1454 1453 1450
f 1454 1450 1451
f 1366 1385 1438
f 1454 1455 1453
f 1456 1453 1455
f 1456 1455 1457
f 1458 1456 1457
f 1386 1458 1457
f 1385 1386 1457
f 1438 1385 1457
f 1439 1438 1457
f 1459 1439 1457
f 1455 1459 1457
f 1460 1440 1459
f 1439 1459 1440
f 1458 1387 1461
f 1387 1458 1386
f 1462 1441 1460
f 1440 1460 1441
f 1461 1388 1463
f 1388 1461 1387
f 1464 1442 1462
f 1441 1462 1442
f 1463 1389 1465
f 1389 1463 1388
f 1390 1465 1389
f 1465 1390 1466
f 1443 1466 1390
f 1466 1443 1464
f 1442 1464 1443
f 1443 1390 1391
f 1443 1391 1444
f 1444 1391 1392
f 1444 1392 1445
f 1445 1392 1393
f 1445 1393 1446
f 1446 1393 1394
f 1446 1394 1447
f 1447 1394 1395
f 1447 1395 1448
f 1448 1395 1396
f 1448 1396 1449
f 1449 1396 1383
f 1400 1467 1399
f 1468 1402 1399
f 1468 1399 1467
f 1468 1403 1402
f 1469 1452 1450
f 1469 1450 1453
f 1469 1453 1470
f 1470 1453 1456
f 1470 1456 1471
f 1471 1456 1458
f 1471 1458 1472
f 1472 1458 1461
f 1472 1461 1473
f 1473 1461 1463
f 1473 1463 1474
f 1474 1463 1465
f 1474 1465 1475
f 1475 1465 1466
f 1408 1476 1407
f 1467 1400 1407
f 1476 1467 1407
f 1477 1467 1476
f 1467 1478 1468
f 1467 1477 1478
f 1479 1411 1403
f 1468 1479 1403
f 1478 1479 1468
f 1479 1413 1411
f 1417 1480 1476
f 1417 1476 1408
f 1476 1481 1477
f 1476 1480 1481
f 1477 1482 1478
f 1477 1481 1482
f 1478 1483 1479
f 1478 1482 1483
f 1484 1421 1413
f 1479 1484 1413
f 1483 1484 1479
f 1484 1423 1421
f 1424 1480 1417
f 1480 1424 1425
f 1485 1480 1425
f 1481 1480 1485
f 1481 1486 1482
f 1481 1485 1486
f 1482 1487 1483
f 1482 1486 1487
f 1487 1429 1430
f 1484 1487 1430
f 1483 1487 1484
f 1484 1430 1423
f 1490 1489 1488
f 1492 1491 1488
f 1492 1488 1489
f 1494 1493 1491
f 1494 1491 1492
f 1496 1495 1493
f 1496 1493 1494
f 1497 1495 1496
f 1431 1485 1425
f 1485 1431 1432
f 1498 1485 1432
f 1486 1485 1498
f 1486 1499 1487
f 1486 1498 1499
f 1499 1435 1429
f 1499 1429 1487
f 1490 1488 1500
f 1490 1500 1501
f 1502 1488 1491
f 1500 1488 1502
f 1503 1491 1493
f 1502 1491 1503
f 1495 1505 1504
f 1503 1495 1504
f 1493 1495 1503
f 1505 1495 1497
f 1436 1498 1432
f 1498 1436 1437
f 1498 1437 1499
f 1499 1437 1435
f 1506 1501 1500
f 1506 1500 1502
f 1506 1502 1507
f 1507 1502 1503
f 1507 1503 1508
f 1508 1503 1504
f 1452 1509 1451
f 1510 1454 1451
f 1510 1451 1509
f 1511 1455 1454
f 1511 1454 1510
f 1512 1459 1455
f 1512 1455 1511
f 1513 1460 1459
f 1513 1459 1512
f 1514 1462 1460
f 1514 1460 1513
f 1515 1464 1462
f 1515 1462 1514
f 1515 1466 1464
f 1469 1509 1452
f 1509 1469 1470
f 1509 1470 1510
f 1510 1470 1471
f 1510 1471 1511
f 1511 1471 1472
f 1511 1472 1512
f 1512 1472 1473
f 1512 1473 1513
f 1513 1473 1474
f 1513 1474 1514
f 1514 1474 1475
f 1514 1475 1515
f 1515 1475 1466
f 1490 1516 1489
f 1517 1492 1489
f 1517 1489 1516
f 1518 1494 1492
f 1518 1492 1517
f 1519 1496 1494
f 1519 1494 1518
f 1519 1497 1496
f 1501 1520 1516
f 1501 1516 1490
f 1516 1521 1517
f 1516 1520 1521
f 1517 1522 1518
f 1517 1521 1522
f 1522 1504 1505
f 1519 1522 1505
f 1518 1522 1519
f 1519 1505 1497
f 1525 1524 1523
f 1527 1526 1523
f 1527 1523 1524
f 1529 1528 1526
f 1529 1526 1527
f 1531 1530 1528
f 1531 1528 1529
f 1532 1530 1531
f 1506 1520 1501
f 1520 1506 1507
f 1520 1507 1521
f 1521 1507 1508
f 1521 1508 1522
f 1522 1508 1504
f 1533 1525 1523
f 1533 1523 1526
f 1533 1526 1534
f 1534 1526 1528
f 1534 1528 1535
f 1535 1528 1530
f 1535 1530 1536
f 1536 1530 1532
f 1525 1537 1524
f 1538 1527 1524
f 1538 1524 1537
f 1539 1529 1527
f 1539 1527 1538
f 1540 1531 1529
f 1540 1529 1539
f 1540 1532 1531
f 1533 1537 1525
f 1537 1533 1534
f 1537 1534 1538
f 1538 1534 1535
f 1538 1535 1539
f 1539 1535 1536
f 1539 1536 1540
f 1540 1536 1532